<svg id="Layer_1" data-name="Layer 1" xmlns="http://www.w3.org/2000/svg" viewBox="0 0 1940.03 252"><defs><style>.cls-1,.cls-2,.cls-3,.cls-4,.cls-5{fill:none;stroke:#fff;stroke-miterlimit:10;}.cls-1{stroke-width:7px;}.cls-2{stroke-width:4px;}.cls-3{stroke-width:14px;}.cls-4{stroke-width:3px;}.cls-5{stroke-width:11px;}</style></defs><title>Bars</title><line class="cls-1" x1="3.5" x2="3.5" y2="252"/><line class="cls-2" x1="12.53" x2="12.53" y2="252"/><line class="cls-2" x1="23.03" x2="23.03" y2="252"/><line class="cls-2" x1="40.53" x2="40.53" y2="252"/><line class="cls-1" x1="70.53" x2="70.53" y2="252"/><line class="cls-2" x1="79.16" x2="79.16" y2="252"/><line class="cls-2" x1="51.03" x2="51.03" y2="252"/><line class="cls-1" x1="98.53" x2="98.53" y2="252"/><line class="cls-2" x1="107.53" x2="107.53" y2="252"/><line class="cls-1" x1="120.03" x2="120.03" y2="252"/><line class="cls-3" x1="134.03" x2="134.03" y2="252"/><line class="cls-1" x1="148.03" x2="148.03" y2="252"/><line class="cls-2" x1="157.03" x2="157.03" y2="252"/><line class="cls-1" x1="176.53" x2="176.53" y2="252"/><line class="cls-3" x1="222.03" x2="222.03" y2="252"/><line class="cls-4" x1="234.53" x2="234.53" y2="252"/><line class="cls-3" x1="261.03" x2="261.03" y2="252"/><line class="cls-2" x1="206.03" x2="206.03" y2="252"/><line class="cls-2" x1="273.03" x2="273.03" y2="252"/><line class="cls-1" x1="282.03" x2="282.03" y2="252"/><line class="cls-2" x1="312.03" x2="312.03" y2="252"/><line class="cls-1" x1="341.53" x2="341.53" y2="252"/><line class="cls-1" x1="352.53" x2="352.53" y2="252"/><line class="cls-5" x1="371.53" x2="371.53" y2="252"/><line class="cls-1" x1="391.53" y1="252" x2="391.53"/><line class="cls-2" x1="167.53" x2="167.53" y2="252"/><line class="cls-4" x1="195.53" y1="1" x2="195.53" y2="252"/><line class="cls-2" x1="245.03" x2="245.03" y2="252"/><line class="cls-2" x1="294.03" x2="294.03" y2="252"/><line class="cls-2" x1="330.03" x2="330.03" y2="252"/><line class="cls-2" x1="382.03" x2="382.03" y2="252"/><line class="cls-1" x1="403.5" x2="403.5" y2="252"/><line class="cls-2" x1="412.53" x2="412.53" y2="252"/><line class="cls-2" x1="423.03" x2="423.03" y2="252"/><line class="cls-2" x1="440.53" x2="440.53" y2="252"/><line class="cls-1" x1="470.53" x2="470.53" y2="252"/><line class="cls-2" x1="479.16" x2="479.16" y2="252"/><line class="cls-2" x1="451.03" x2="451.03" y2="252"/><line class="cls-1" x1="498.53" x2="498.53" y2="252"/><line class="cls-2" x1="507.53" x2="507.53" y2="252"/><line class="cls-1" x1="520.03" x2="520.03" y2="252"/><line class="cls-3" x1="534.03" x2="534.03" y2="252"/><line class="cls-1" x1="548.03" x2="548.03" y2="252"/><line class="cls-2" x1="557.03" x2="557.03" y2="252"/><line class="cls-1" x1="576.53" x2="576.53" y2="252"/><line class="cls-3" x1="622.03" x2="622.03" y2="252"/><line class="cls-4" x1="634.53" x2="634.53" y2="252"/><line class="cls-3" x1="661.03" x2="661.03" y2="252"/><line class="cls-2" x1="606.03" x2="606.03" y2="252"/><line class="cls-2" x1="673.03" x2="673.03" y2="252"/><line class="cls-1" x1="682.03" x2="682.03" y2="252"/><line class="cls-2" x1="712.03" x2="712.03" y2="252"/><line class="cls-1" x1="741.53" x2="741.53" y2="252"/><line class="cls-1" x1="752.53" x2="752.53" y2="252"/><line class="cls-5" x1="771.53" x2="771.53" y2="252"/><line class="cls-1" x1="791.53" y1="252" x2="791.53"/><line class="cls-2" x1="567.53" x2="567.53" y2="252"/><line class="cls-4" x1="595.53" y1="1" x2="595.53" y2="252"/><line class="cls-2" x1="645.03" x2="645.03" y2="252"/><line class="cls-2" x1="694.03" x2="694.03" y2="252"/><line class="cls-2" x1="730.03" x2="730.03" y2="252"/><line class="cls-2" x1="782.03" x2="782.03" y2="252"/><line class="cls-1" x1="804.5" x2="804.5" y2="252"/><line class="cls-2" x1="813.53" x2="813.53" y2="252"/><line class="cls-2" x1="824.03" x2="824.03" y2="252"/><line class="cls-2" x1="841.53" x2="841.53" y2="252"/><line class="cls-1" x1="871.53" x2="871.53" y2="252"/><line class="cls-2" x1="880.16" x2="880.16" y2="252"/><line class="cls-2" x1="852.03" x2="852.03" y2="252"/><line class="cls-1" x1="899.53" x2="899.53" y2="252"/><line class="cls-2" x1="908.53" x2="908.53" y2="252"/><line class="cls-1" x1="921.03" x2="921.03" y2="252"/><line class="cls-3" x1="935.03" x2="935.03" y2="252"/><line class="cls-1" x1="949.03" x2="949.03" y2="252"/><line class="cls-2" x1="958.03" x2="958.03" y2="252"/><line class="cls-1" x1="977.53" x2="977.53" y2="252"/><line class="cls-3" x1="1023.03" x2="1023.03" y2="252"/><line class="cls-4" x1="1035.53" x2="1035.53" y2="252"/><line class="cls-3" x1="1062.03" x2="1062.03" y2="252"/><line class="cls-2" x1="1007.03" x2="1007.03" y2="252"/><line class="cls-2" x1="1074.03" x2="1074.03" y2="252"/><line class="cls-1" x1="1083.03" x2="1083.03" y2="252"/><line class="cls-2" x1="1113.03" x2="1113.03" y2="252"/><line class="cls-1" x1="1142.53" x2="1142.53" y2="252"/><line class="cls-1" x1="1153.53" x2="1153.53" y2="252"/><line class="cls-5" x1="1172.53" x2="1172.53" y2="252"/><line class="cls-1" x1="1192.53" y1="252" x2="1192.53"/><line class="cls-2" x1="968.53" x2="968.53" y2="252"/><line class="cls-4" x1="996.53" y1="1" x2="996.53" y2="252"/><line class="cls-2" x1="1046.03" x2="1046.03" y2="252"/><line class="cls-2" x1="1095.03" x2="1095.03" y2="252"/><line class="cls-2" x1="1131.03" x2="1131.03" y2="252"/><line class="cls-2" x1="1183.03" x2="1183.03" y2="252"/><line class="cls-1" x1="1211.5" x2="1211.5" y2="252"/><line class="cls-2" x1="1220.53" x2="1220.53" y2="252"/><line class="cls-2" x1="1231.03" x2="1231.03" y2="252"/><line class="cls-2" x1="1248.53" x2="1248.53" y2="252"/><line class="cls-1" x1="1278.53" x2="1278.53" y2="252"/><line class="cls-2" x1="1287.16" x2="1287.16" y2="252"/><line class="cls-2" x1="1259.03" x2="1259.03" y2="252"/><line class="cls-1" x1="1306.53" x2="1306.53" y2="252"/><line class="cls-2" x1="1315.53" x2="1315.53" y2="252"/><line class="cls-1" x1="1328.03" x2="1328.03" y2="252"/><line class="cls-3" x1="1342.03" x2="1342.03" y2="252"/><line class="cls-1" x1="1356.03" x2="1356.03" y2="252"/><line class="cls-2" x1="1365.03" x2="1365.03" y2="252"/><line class="cls-1" x1="1384.53" x2="1384.53" y2="252"/><line class="cls-3" x1="1430.03" x2="1430.03" y2="252"/><line class="cls-4" x1="1442.53" x2="1442.53" y2="252"/><line class="cls-3" x1="1469.03" x2="1469.03" y2="252"/><line class="cls-2" x1="1414.03" x2="1414.03" y2="252"/><line class="cls-2" x1="1481.03" x2="1481.03" y2="252"/><line class="cls-1" x1="1490.03" x2="1490.03" y2="252"/><line class="cls-2" x1="1520.03" x2="1520.03" y2="252"/><line class="cls-1" x1="1549.53" x2="1549.53" y2="252"/><line class="cls-1" x1="1560.53" x2="1560.53" y2="252"/><line class="cls-5" x1="1579.53" x2="1579.53" y2="252"/><line class="cls-1" x1="1599.53" y1="252" x2="1599.53"/><line class="cls-2" x1="1375.53" x2="1375.53" y2="252"/><line class="cls-4" x1="1403.53" y1="1" x2="1403.53" y2="252"/><line class="cls-2" x1="1453.03" x2="1453.03" y2="252"/><line class="cls-2" x1="1502.03" x2="1502.03" y2="252"/><line class="cls-2" x1="1538.03" x2="1538.03" y2="252"/><line class="cls-2" x1="1590.03" x2="1590.03" y2="252"/><line class="cls-1" x1="1611.5" x2="1611.5" y2="252"/><line class="cls-2" x1="1620.53" x2="1620.53" y2="252"/><line class="cls-2" x1="1631.03" x2="1631.03" y2="252"/><line class="cls-2" x1="1648.53" x2="1648.53" y2="252"/><line class="cls-1" x1="1678.53" x2="1678.53" y2="252"/><line class="cls-2" x1="1687.16" x2="1687.16" y2="252"/><line class="cls-2" x1="1659.03" x2="1659.03" y2="252"/><line class="cls-1" x1="1706.53" x2="1706.53" y2="252"/><line class="cls-2" x1="1715.53" x2="1715.53" y2="252"/><line class="cls-1" x1="1728.03" x2="1728.03" y2="252"/><line class="cls-3" x1="1742.03" x2="1742.03" y2="252"/><line class="cls-1" x1="1756.03" x2="1756.03" y2="252"/><line class="cls-2" x1="1765.03" x2="1765.03" y2="252"/><line class="cls-1" x1="1784.53" x2="1784.53" y2="252"/><line class="cls-3" x1="1830.03" x2="1830.03" y2="252"/><line class="cls-4" x1="1842.53" x2="1842.53" y2="252"/><line class="cls-3" x1="1869.03" x2="1869.03" y2="252"/><line class="cls-2" x1="1814.03" x2="1814.03" y2="252"/><line class="cls-2" x1="1881.03" x2="1881.03" y2="252"/><line class="cls-1" x1="1890.03" x2="1890.03" y2="252"/><line class="cls-2" x1="1920.03" x2="1920.03" y2="252"/><line class="cls-2" x1="1775.53" x2="1775.53" y2="252"/><line class="cls-4" x1="1803.53" y1="1" x2="1803.53" y2="252"/><line class="cls-2" x1="1853.03" x2="1853.03" y2="252"/><line class="cls-2" x1="1902.03" x2="1902.03" y2="252"/><line class="cls-2" x1="1938.03" x2="1938.03" y2="252"/></svg>