<svg id="Layer_1" data-name="Layer 1" xmlns="http://www.w3.org/2000/svg" xmlns:xlink="http://www.w3.org/1999/xlink" viewBox="0 0 405.02 611.21"><defs><style>.cls-1,.cls-10,.cls-5,.cls-6,.cls-7,.cls-8,.cls-9{fill:none;}.cls-2{clip-path:url(#clip-path);}.cls-3{fill:#fff;}.cls-4{clip-path:url(#clip-path-2);}.cls-10,.cls-5,.cls-6,.cls-7,.cls-8,.cls-9{stroke:#fff;stroke-miterlimit:10;}.cls-5{stroke-width:7px;}.cls-6{stroke-width:4px;}.cls-7{stroke-width:14px;}.cls-8{stroke-width:3px;}.cls-9{stroke-width:11px;}</style><clipPath id="clip-path" transform="translate(7.07 0.04)"><polygon class="cls-1" points="395.5 612 0.5 612 0.5 509 395.5 506 395.5 612"/></clipPath><clipPath id="clip-path-2" transform="translate(7.07 0.04)"><path class="cls-1" d="M12,0H383.5a12,12,0,0,1,12,12V501.5a0,0,0,0,1,0,0H0a0,0,0,0,1,0,0V12A12,12,0,0,1,12,0Z"/></clipPath></defs><title>Tall</title><g class="cls-2"><path class="cls-3" d="M-7.07,178.75H7.5v306H-7.07ZM.34,528.48H37.66q8.78,1.83,8.78,8.79v65.12q-1.83,8.79-8.78,8.78H.34Zm9.35,9.4v27H32.51a4.13,4.13,0,0,0,4.13-4.14V542a4.13,4.13,0,0,0-4.13-4.13Zm.16,36.7v27.08H32.77a4.15,4.15,0,0,0,4.16-4.15V578.74a4.16,4.16,0,0,0-4.16-4.16Zm5.67-395.83h3.64v306H15.52Zm14.57,0h3.64v306H30.09Zm16.75,0h3.64v306H46.84Z" transform="translate(7.07 0.04)"/><path class="cls-3" d="M50.85,178.75h3.64v306H50.85Zm7.28,0h7.29v306H58.13Zm.38,349.73h46.84V538H91.07a4,4,0,0,0-4,4v55.64a4,4,0,0,0,4,4h14.28v9.51H58.51v-9.51H72.79a4,4,0,0,0,4-4V542a4,4,0,0,0-4-4H58.51ZM80,178.75h7.28v306H80Zm18.21,0h10.92v306H98.2Z" transform="translate(7.07 0.04)"/><path class="cls-3" d="M108.76,178.75h10.92v306H108.76Zm8.66,349.73h46.1l-4,10.12-22.82,57.33a4.18,4.18,0,0,0,3.88,5.73h23v9.51h-46.1l28.23-67.37a4.18,4.18,0,0,0-3.86-5.8H117.42ZM132.8,178.75h7.28v306H132.8Zm13.84,0h3.64v306h-3.64Zm13.11,0H167v306h-7.28Z" transform="translate(7.07 0.04)"/><path class="cls-3" d="M166.67,179.48H174v306h-7.28Zm17,349h27.81q9.51,0,9.51,13.91v68.78H210.72V574.58H184.37v36.59H174.13V542.39Q174.13,528.49,183.64,528.48Zm-.22,14.63v16.48a5.25,5.25,0,0,0,5.24,5.24h15.75a5.25,5.25,0,0,0,5.24-5.24V543.11a5.24,5.24,0,0,0-5.24-5.23H188.66A5.24,5.24,0,0,0,183.42,543.11Zm1.46-363.63h7.29v306h-7.29Zm18.94,0h3.64v306h-3.64Zm16.76,0h3.64v306h-3.64Z" transform="translate(7.07 0.04)"/><path class="cls-3" d="M224.58,178.75h10.2v306h-10.2Zm28.41,0h7.29v306H253Zm14.57,0h7.29v306h-7.29Zm13.25,0h.46a1.59,1.59,0,0,1,1.59,1.59V483.11a1.59,1.59,0,0,1-1.59,1.59h-.46a1.59,1.59,0,0,1-1.59-1.59V180.34A1.59,1.59,0,0,1,280.81,178.75Z" transform="translate(7.07 0.04)"/><path class="cls-3" d="M284.1,178.75h7a1.59,1.59,0,0,1,1.59,1.59V483.11a1.59,1.59,0,0,1-1.59,1.59h-7a1.59,1.59,0,0,1-1.59-1.59V180.34A1.59,1.59,0,0,1,284.1,178.75Zm7.86,349h35.85q9.51,0,9.52,13.91v31a1.6,1.6,0,0,1-1.68,1.59l-6.15.09c-1.06-.06-1.44.56-1.2,1.59l7.83,33.29a1.59,1.59,0,0,1-1.55,2h-6c-.77,0-14.44-31.71-14.44-31.71H300.4l.34,28.65a3.06,3.06,0,0,1-3.06,3.06h-7.19V529.22Q290.67,527.75,292,527.75Zm7.31,10.13V564.1H323.9a1.59,1.59,0,0,0,1.59-1.59v-23a1.59,1.59,0,0,0-1.59-1.59Zm13.24-359.13h4.11a1.59,1.59,0,0,1,1.59,1.59V483.11a1.59,1.59,0,0,1-1.59,1.59h-4.11a1.59,1.59,0,0,1-1.59-1.59V180.34A1.59,1.59,0,0,1,312.51,178.75Zm14.57,0h4.11a1.59,1.59,0,0,1,1.59,1.59V483.11a1.59,1.59,0,0,1-1.59,1.59h-4.11a1.59,1.59,0,0,1-1.59-1.59V180.34A1.59,1.59,0,0,1,327.08,178.75Zm11.66,0h.46a1.59,1.59,0,0,1,1.59,1.59V483.11a1.59,1.59,0,0,1-1.59,1.59h-.46a1.59,1.59,0,0,1-1.59-1.59V180.34A1.59,1.59,0,0,1,338.74,178.75Z" transform="translate(7.07 0.04)"/><path class="cls-3" d="M226.17,178.75h7a1.59,1.59,0,0,1,1.59,1.59V483.11a1.59,1.59,0,0,1-1.59,1.59h-7a1.59,1.59,0,0,1-1.59-1.59V180.34A1.59,1.59,0,0,1,226.17,178.75Zm7.6,349h35.85q9.51,0,9.51,13.91v31a1.59,1.59,0,0,1-1.67,1.59l-6.15.09c-1.06-.06-1.45.56-1.2,1.59l7.83,33.29a1.6,1.6,0,0,1-1.56,2h-6c-.78,0-14.45-31.71-14.45-31.71H242.21l.34,28.65a3.07,3.07,0,0,1-3.07,3.06H232.3V529.22Q232.48,527.75,233.77,527.75Zm7.57,10.13V564.1H266a1.59,1.59,0,0,0,1.59-1.59v-23a1.59,1.59,0,0,0-1.59-1.59Zm13.24-359.13h4.11a1.59,1.59,0,0,1,1.59,1.59V483.11a1.59,1.59,0,0,1-1.59,1.59h-4.11a1.59,1.59,0,0,1-1.59-1.59V180.34A1.59,1.59,0,0,1,254.58,178.75Zm14.57,0h4.11a1.59,1.59,0,0,1,1.59,1.59V483.11a1.59,1.59,0,0,1-1.59,1.59h-4.11a1.59,1.59,0,0,1-1.59-1.59V180.34A1.59,1.59,0,0,1,269.15,178.75Zm11.66,0h.46a1.59,1.59,0,0,1,1.59,1.59V483.11a1.59,1.59,0,0,1-1.59,1.59h-.46a1.59,1.59,0,0,1-1.59-1.59V180.34A1.59,1.59,0,0,1,280.81,178.75Z" transform="translate(7.07 0.04)"/><path class="cls-3" d="M284.22,178.75h10.2v306h-10.2Zm28.41,0h7.28v306h-7.28Zm14.57,0h7.28v306H327.2Zm13.24,0h.46a1.59,1.59,0,0,1,1.59,1.59V483.11a1.59,1.59,0,0,1-1.59,1.59h-.46a1.59,1.59,0,0,1-1.59-1.59V180.34A1.59,1.59,0,0,1,340.44,178.75Z" transform="translate(7.07 0.04)"/><path class="cls-3" d="M285.81,178.75h7a1.6,1.6,0,0,1,1.6,1.59V483.11a1.6,1.6,0,0,1-1.6,1.59h-7a1.59,1.59,0,0,1-1.59-1.59V180.34A1.59,1.59,0,0,1,285.81,178.75Zm28.41,0h4.1a1.59,1.59,0,0,1,1.59,1.59V483.11a1.59,1.59,0,0,1-1.59,1.59h-4.1a1.59,1.59,0,0,1-1.59-1.59V180.34A1.59,1.59,0,0,1,314.22,178.75Zm14.57,0h4.1a1.59,1.59,0,0,1,1.59,1.59V483.11a1.59,1.59,0,0,1-1.59,1.59h-4.1a1.59,1.59,0,0,1-1.59-1.59V180.34A1.59,1.59,0,0,1,328.79,178.75Zm11.65,0h.46a1.59,1.59,0,0,1,1.59,1.59V483.11a1.59,1.59,0,0,1-1.59,1.59h-.46a1.59,1.59,0,0,1-1.59-1.59V180.34A1.59,1.59,0,0,1,340.44,178.75Z" transform="translate(7.07 0.04)"/><path class="cls-3" d="M340.41,178.75h3.64v306h-3.64Zm9,349.73h46.1V538H362.9a4,4,0,0,0-4,4v19a4,4,0,0,0,4,4h27.46v9.51H362.9a4,4,0,0,0-4,4v19.06a4,4,0,0,0,4,4h32.58v9.51h-46.1Zm3.41-349.73h7.28v306h-7.28Zm13.84,0h7.29v306h-7.29Zm24,0H398v306h-7.28Z" transform="translate(7.07 0.04)"/></g><g class="cls-4"><line class="cls-5" x1="11.04" y1="0.04" x2="11.04" y2="501.04"/><line class="cls-6" x1="20.07" y1="0.04" x2="20.07" y2="501.04"/><line class="cls-6" x1="30.57" y1="0.04" x2="30.57" y2="501.04"/><line class="cls-6" x1="48.07" y1="0.04" x2="48.07" y2="501.04"/><line class="cls-5" x1="78.07" y1="0.04" x2="78.07" y2="501.04"/><line class="cls-6" x1="86.7" y1="0.04" x2="86.7" y2="501.04"/><line class="cls-6" x1="58.57" y1="0.04" x2="58.57" y2="501.04"/><line class="cls-5" x1="106.07" y1="0.04" x2="106.07" y2="501.04"/><line class="cls-6" x1="115.07" y1="0.04" x2="115.07" y2="501.04"/><line class="cls-5" x1="127.57" y1="0.04" x2="127.57" y2="501.04"/><line class="cls-7" x1="141.57" y1="0.04" x2="141.57" y2="501.04"/><path class="cls-5" d="M148.5,0V106.72a12.84,12.84,0,0,1-1.66,6.5C136.5,131,135.5,154,148,171.46a53.69,53.69,0,0,1,.46,8.33V501" transform="translate(7.07 0.04)"/><path class="cls-6" d="M157.5,0V99.32c-23,22.68-25,58.68-1,81.31a36.63,36.63,0,0,1,1,7.82V501" transform="translate(7.07 0.04)"/><path class="cls-5" d="M177,0s-1,92.87-1.65,93.08A49.69,49.69,0,0,0,139.5,131c-6,28,14,50,37,60,1,1,.5,310,.5,310" transform="translate(7.07 0.04)"/><path class="cls-7" d="M222.5,179.79V501" transform="translate(7.07 0.04)"/><path class="cls-7" d="M222.5,0V99.32" transform="translate(7.07 0.04)"/><path class="cls-8" d="M235,0V114.28q0,3.82,0,7.73c.49,8,3.49,16,2.1,24.13a57.71,57.71,0,0,1-1.21,8.36,80.57,80.57,0,0,0-.9,8.23V501" transform="translate(7.07 0.04)"/><line class="cls-7" x1="268.57" y1="0.04" x2="268.57" y2="501.04"/><path class="cls-6" d="M206.5,0V90.69c0,2.83.8,3.66,2,4.31,14.28,5.18,23,18,27,32,4,17,0,35-11.83,47.55-2.23,2.44-4.87,4.45-7.26,6.83A54.94,54.94,0,0,1,208.5,188c-2,2-2,15-2,18V501" transform="translate(7.07 0.04)"/><line class="cls-6" x1="280.57" y1="0.04" x2="280.57" y2="501.04"/><line class="cls-5" x1="289.57" y1="0.04" x2="289.57" y2="501.04"/><line class="cls-6" x1="319.57" y1="0.04" x2="319.57" y2="501.04"/><line class="cls-5" x1="349.07" y1="0.04" x2="349.07" y2="501.04"/><line class="cls-5" x1="360.07" y1="0.04" x2="360.07" y2="501.04"/><line class="cls-9" x1="379.07" y1="0.04" x2="379.07" y2="501.04"/><line class="cls-5" x1="399.07" y1="501.04" x2="399.07" y2="0.04"/><path class="cls-6" d="M168,0V92.11c0,2.38-.55,3.58-1.47,4.15-19,9.74-31,31.74-27,53.74,3,16,14,28,27,36,3,3,1.5,315,1.5,315" transform="translate(7.07 0.04)"/><path class="cls-8" d="M196,1V85.93c0,2.3.34,6.25,1.63,6.54C224.5,98,242.5,126,235.5,154c-5,20-23,29-39,38-1,1-.5,309-.5,309" transform="translate(7.07 0.04)"/><line class="cls-6" x1="252.57" y1="0.04" x2="252.57" y2="501.04"/><line class="cls-6" x1="301.57" y1="0.04" x2="301.57" y2="501.04"/><line class="cls-6" x1="337.57" y1="0.04" x2="337.57" y2="501.04"/><line class="cls-6" x1="389.57" y1="0.04" x2="389.57" y2="501.04"/><path class="cls-7" d="M221.5,97" transform="translate(7.07 0.04)"/><path class="cls-3" d="M229.1,106.41a12.5,12.5,0,0,0-.37-1.33c0-.09-.07-.18-.11-.27a5.71,5.71,0,0,0,.33-3.06,4,4,0,0,0,.14-1.38,15.87,15.87,0,0,0-.39-2.74,4.54,4.54,0,0,0-1.42-2.32,4.45,4.45,0,0,0-.61-1.92,5,5,0,0,0-6.84-1.8,4.85,4.85,0,0,0-2.3,3,8.94,8.94,0,0,0,0,3.38,10.65,10.65,0,0,0,.83,2.18c.33.7.68,1.39,1,2.08-.22,2.65,1.38,5.47,4.81,5.47a5.44,5.44,0,0,0,1.09-.11,2,2,0,0,0,2.42,1.29A2,2,0,0,0,229.1,106.41Z" transform="translate(7.07 0.04)"/><line class="cls-10" x1="236.07" y1="92.54" x2="236.07" y2="111.54"/><polyline class="cls-3" points="236.57 168.04 236.57 196.04 223.9 181.11 236.57 168.04"/></g></svg>