<svg xmlns="http://www.w3.org/2000/svg" viewBox="0 0 3160.79 3160.62"><title>Asset 36</title><g id="Layer_2" data-name="Layer 2"><g id="Layer_1-2" data-name="Layer 1"><path d="M0,2499.21H298.5q70.26,14.64,70.25,70.24v520.92q-14.64,70.26-70.25,70.25H0Zm74.78,75.13v215.58H257.31a33.06,33.06,0,0,0,33.07-33.07V2607.41a33.06,33.06,0,0,0-33.07-33.07Zm1.31,337v173.16H259.44a33.22,33.22,0,0,0,33.22-33.22V2901.18A33.22,33.22,0,0,0,259.44,2868H119.5A43.41,43.41,0,0,0,76.09,2911.37Z"/><path d="M479.9,2499.21H825.37a14.56,14.56,0,0,1,14.57,14.56v47a14.57,14.57,0,0,1-14.57,14.57H725.72a32.1,32.1,0,0,0-32.11,32.11v445a32.11,32.11,0,0,0,32.11,32.11h99.65a14.57,14.57,0,0,1,14.57,14.57v47a14.57,14.57,0,0,1-14.57,14.57H479.9a14.57,14.57,0,0,1-14.57-14.57v-47a14.57,14.57,0,0,1,14.57-14.57h99.65a32.11,32.11,0,0,0,32.11-32.11v-445a32.1,32.1,0,0,0-32.11-32.11H479.9a14.57,14.57,0,0,1-14.57-14.57v-47A14.56,14.56,0,0,1,479.9,2499.21Z"/><path d="M951.07,2499.21h354.19l-32.21,80.89-182.58,458.59a33.46,33.46,0,0,0,31.1,45.84h169.12a14.57,14.57,0,0,1,14.57,14.57v47a14.57,14.57,0,0,1-14.57,14.57H958.4a14.57,14.57,0,0,1-13.43-20.2l217.34-518.72a33.46,33.46,0,0,0-30.87-46.39H951.07a14.57,14.57,0,0,1-14.56-14.57v-47A14.56,14.56,0,0,1,951.07,2499.21Z"/><path d="M1466.21,2499.21h222.43q76.08,0,76.09,111.2v535.64a14.57,14.57,0,0,1-14.57,14.57h-52.8a14.57,14.57,0,0,1-14.57-14.57V2882.52a14.57,14.57,0,0,0-14.57-14.57H1486.64a14.57,14.57,0,0,0-14.57,14.57v263.53a14.57,14.57,0,0,1-14.57,14.57h-52.81a14.56,14.56,0,0,1-14.56-14.57V2610.41Q1390.13,2499.23,1466.21,2499.21Zm-1.72,117V2748a41.88,41.88,0,0,0,41.88,41.88h126a41.88,41.88,0,0,0,41.88-41.88V2616.22a41.88,41.88,0,0,0-41.88-41.88h-126A41.88,41.88,0,0,0,1464.49,2616.22Z"/><path d="M2332.65,2493.35h286.81q76.07,0,76.08,111.22v247.89a12.79,12.79,0,0,1-13.42,12.77l-49.17.67c-8.5-.43-11.55,4.46-9.6,12.74L2686,3144.91a12.78,12.78,0,0,1-12.44,15.71H2625.3c-6.22,0-115.57-253.65-115.57-253.65-10.9,0-66.88,0-94.81,0a14.52,14.52,0,0,0-14.54,14.73l2.5,214.4a24.5,24.5,0,0,1-24.5,24.5H2335.5a14.56,14.56,0,0,1-14.56-14.57v-641C2321.9,2497.27,2325.8,2493.35,2332.65,2493.35Zm58.47,95.55v180.63a14.56,14.56,0,0,0,14.56,14.56h182.48a12.72,12.72,0,0,0,12.73-12.72V2587.06a12.72,12.72,0,0,0-12.73-12.72H2405.68A14.56,14.56,0,0,0,2391.12,2588.9Z"/><path d="M1867.17,2493.35H2154q76.07,0,76.08,111.22v247.89a12.79,12.79,0,0,1-13.42,12.77l-49.17.67c-8.5-.43-11.55,4.46-9.6,12.74l62.64,266.27a12.78,12.78,0,0,1-12.44,15.71h-48.25c-6.22,0-115.57-253.65-115.57-253.65-10.9,0-66.88,0-94.81,0a14.52,14.52,0,0,0-14.54,14.73l2.5,214.4a24.5,24.5,0,0,1-24.49,24.5H1870a14.57,14.57,0,0,1-14.57-14.57v-641C1856.42,2497.27,1860.33,2493.35,1867.17,2493.35Zm60.56,95.55v180.63a14.56,14.56,0,0,0,14.57,14.56h182.48a12.72,12.72,0,0,0,12.72-12.72V2587.06a12.72,12.72,0,0,0-12.72-12.72H1942.3A14.56,14.56,0,0,0,1927.73,2588.9Z"/><path d="M2806.53,2499.21h339.62a14.56,14.56,0,0,1,14.56,14.56v47a14.57,14.57,0,0,1-14.56,14.57h-246a32.06,32.06,0,0,0-32.06,32.06v152.44a32.07,32.07,0,0,0,32.06,32.06h205.06a14.57,14.57,0,0,1,14.57,14.57v46.95a14.57,14.57,0,0,1-14.57,14.56H2900.11a32.07,32.07,0,0,0-32.06,32.07v152.45a32.06,32.06,0,0,0,32.06,32.06h246a14.56,14.56,0,0,1,14.56,14.57v61.52H2806.53a14.57,14.57,0,0,1-14.57-14.57V2513.77A14.57,14.57,0,0,1,2806.53,2499.21Z"/><rect x="1.28" y="0.62" width="55.99" height="2287.49"/><rect x="85.49" y="0.62" width="31.99" height="2287.49"/><rect x="169.47" y="0.62" width="31.99" height="2287.49"/><rect x="309.44" y="0.62" width="31.99" height="2287.49"/><rect x="537.38" y="0.62" width="55.99" height="2287.49"/><rect x="618.4" y="0.62" width="31.99" height="2287.49"/><rect x="393.42" y="0.62" width="31.99" height="2287.49"/><rect x="761.33" y="0.62" width="55.99" height="2287.49"/><rect x="845.31" y="0.62" width="31.99" height="2287.49"/><rect x="933.3" y="0.62" width="55.99" height="2287.49"/><rect x="1017.28" y="0.62" width="111.97" height="2287.49"/><rect x="1157.24" y="0.62" width="55.99" height="2287.49"/><rect x="1241.23" y="0.62" width="31.99" height="2287.49"/><rect x="1385.19" y="0.62" width="55.99" height="2287.49"/><rect x="1721.12" y="0.62" width="111.97" height="2287.49"/><rect x="1865.09" y="0.62" width="23.99" height="2287.49"/><rect x="2033.05" y="0.62" width="111.97" height="2287.49"/><rect x="1633.14" y="0.62" width="31.99" height="2287.49"/><rect x="2169.02" y="0.62" width="31.99" height="2287.49"/><rect x="2229" y="0.62" width="55.99" height="2287.49"/><rect x="2480.95" y="0.62" width="31.99" height="2287.49"/><rect x="2704.9" y="0.62" width="55.99" height="2287.49"/><rect x="2792.88" y="0.62" width="55.99" height="2287.49"/><rect x="2928.85" y="0.62" width="87.98" height="2287.49"/><rect x="3104.81" y="0.62" width="55.99" height="2287.49"/><rect x="1325.21" y="0.62" width="31.99" height="2287.49"/><rect x="1553.16" width="23.99" height="2288.1"/><rect x="1945.07" y="0.62" width="31.99" height="2287.49"/><rect x="2336.98" y="0.62" width="31.99" height="2287.49"/><rect x="2624.91" y="0.62" width="31.99" height="2287.49"/><rect x="3040.82" y="0.62" width="31.99" height="2287.49"/></g></g></svg>