<svg id="Layer_1" data-name="Layer 1" xmlns="http://www.w3.org/2000/svg" xmlns:xlink="http://www.w3.org/1999/xlink" viewBox="0 0 397.71 397.45"><defs><style>.cls-1,.cls-5,.cls-6,.cls-7,.cls-8,.cls-9{fill:none;}.cls-2{clip-path:url(#clip-path);}.cls-3{fill:#fff;}.cls-4{clip-path:url(#clip-path-2);}.cls-5,.cls-6,.cls-7,.cls-8,.cls-9{stroke:#fff;stroke-miterlimit:10;}.cls-5{stroke-width:7px;}.cls-6{stroke-width:4px;}.cls-7{stroke-width:14px;}.cls-8{stroke-width:3px;}.cls-9{stroke-width:11px;}</style><clipPath id="clip-path"><path class="cls-1" d="M394.7,397.17H6.91a5.43,5.43,0,0,1-5.43-5.43V312l395-3v86.31A1.83,1.83,0,0,1,394.7,397.17Z"/></clipPath><clipPath id="clip-path-2"><rect class="cls-1" x="1.04" y="1.04" width="395.87" height="286.42" rx="29.21"/></clipPath></defs><title>bizarre_white</title><g class="cls-2"><path class="cls-3" d="M-6.09-36.12H8.48v306H-6.09ZM1.32,313.65H38.64q8.78,1.83,8.78,8.78v65.13q-1.83,8.78-8.78,8.78H1.32ZM10.67,323V350H33.49a4.13,4.13,0,0,0,4.13-4.13V327.17A4.13,4.13,0,0,0,33.49,323Zm.16,42.14v21.65H33.76a4.15,4.15,0,0,0,4.15-4.15V363.9a4.15,4.15,0,0,0-4.15-4.15H16.26A5.43,5.43,0,0,0,10.83,365.18ZM16.5-36.12h3.64v306H16.5Zm14.57,0h3.64v306H31.07Zm16.75,0h3.65v306H47.82Z"/><path class="cls-3" d="M51.83-36.12h3.64v306H51.83Zm7.29,0H66.4v306H59.12Zm2.2,349.77h43.19a1.81,1.81,0,0,1,1.82,1.82v5.87a1.81,1.81,0,0,1-1.82,1.82H92.05a4,4,0,0,0-4,4v55.63a4,4,0,0,0,4,4h12.46a1.81,1.81,0,0,1,1.82,1.82v5.87a1.81,1.81,0,0,1-1.82,1.82H61.32a1.81,1.81,0,0,1-1.82-1.82v-5.87a1.81,1.81,0,0,1,1.82-1.82H73.78a4,4,0,0,0,4-4V327.18a4,4,0,0,0-4-4H61.32a1.81,1.81,0,0,1-1.82-1.82v-5.87A1.81,1.81,0,0,1,61.32,313.65ZM81-36.12h7.29v306H81Zm18.21,0h10.93v306H99.18Z"/><path class="cls-3" d="M111.57-36.12h7.28a1.81,1.81,0,0,1,1.82,1.82V268a1.82,1.82,0,0,1-1.82,1.82h-7.28a1.82,1.82,0,0,1-1.82-1.82V-34.3A1.81,1.81,0,0,1,111.57-36.12Zm8.66,349.77h44.28l-4,10.11L137.66,381.1a4.18,4.18,0,0,0,3.88,5.73h21.15a1.81,1.81,0,0,1,1.82,1.82v5.87a1.81,1.81,0,0,1-1.82,1.82H121.15a1.81,1.81,0,0,1-1.68-2.52L146.64,329a4.19,4.19,0,0,0-3.86-5.8H120.23a1.81,1.81,0,0,1-1.82-1.82v-5.87A1.81,1.81,0,0,1,120.23,313.65ZM135.61-36.12h3.64a1.81,1.81,0,0,1,1.82,1.82V268a1.82,1.82,0,0,1-1.82,1.82h-3.64a1.82,1.82,0,0,1-1.82-1.82V-34.3A1.81,1.81,0,0,1,135.61-36.12Zm13.84,0h0a1.81,1.81,0,0,1,1.82,1.82V268a1.82,1.82,0,0,1-1.82,1.82h0a1.82,1.82,0,0,1-1.82-1.82V-34.3A1.81,1.81,0,0,1,149.45-36.12Zm13.11,0h3.65A1.82,1.82,0,0,1,168-34.3V268a1.83,1.83,0,0,1-1.82,1.82h-3.65a1.83,1.83,0,0,1-1.82-1.82V-34.3A1.82,1.82,0,0,1,162.56-36.12Z"/><path class="cls-3" d="M167.66-35.39H175v306h-7.29Zm17,349h27.81q9.51,0,9.51,13.9v67a1.82,1.82,0,0,1-1.82,1.82h-6.6a1.82,1.82,0,0,1-1.83-1.82V361.57a1.82,1.82,0,0,0-1.82-1.82h-22.7a1.82,1.82,0,0,0-1.82,1.82v32.95a1.82,1.82,0,0,1-1.82,1.82h-6.61a1.82,1.82,0,0,1-1.82-1.82v-67Q175.12,313.65,184.64,313.65Zm-.22,14.63v16.48a5.23,5.23,0,0,0,5.24,5.23h15.75a5.24,5.24,0,0,0,5.24-5.23V328.28a5.24,5.24,0,0,0-5.24-5.24H189.66A5.23,5.23,0,0,0,184.42,328.28Zm1.46-363.67h7.28v306h-7.28Zm18.94,0h3.64v306h-3.64Zm16.76,0h3.64v306h-3.64Z"/><path class="cls-3" d="M225.58-36.12h10.2v306h-10.2Zm28.41,0h7.29v306H254Zm14.58,0h7.28v306h-7.28Zm13.24,0h.46a1.6,1.6,0,0,1,1.6,1.59v302.8a1.6,1.6,0,0,1-1.6,1.59h-.46a1.59,1.59,0,0,1-1.59-1.59V-34.53A1.59,1.59,0,0,1,281.81-36.12Z"/><path class="cls-3" d="M285.11-36.12h7a1.59,1.59,0,0,1,1.59,1.59v302.8a1.59,1.59,0,0,1-1.59,1.59h-7a1.59,1.59,0,0,1-1.59-1.59V-34.53A1.59,1.59,0,0,1,285.11-36.12Zm7.85,349h35.86q9.51,0,9.52,13.91v31a1.6,1.6,0,0,1-1.68,1.6l-6.15.08c-1.06-.05-1.44.56-1.2,1.6l7.83,33.29a1.59,1.59,0,0,1-1.55,2h-6c-.77,0-14.45-31.71-14.45-31.71H303.25a1.82,1.82,0,0,0-1.82,1.84l.32,26.81a3.07,3.07,0,0,1-3.07,3.06h-5.36a1.82,1.82,0,0,1-1.82-1.82V314.38C291.62,313.4,292.11,312.91,293,312.91Zm7.31,11.95v22.58a1.83,1.83,0,0,0,1.83,1.83h22.81a1.6,1.6,0,0,0,1.59-1.6v-23a1.59,1.59,0,0,0-1.59-1.59H302.1A1.83,1.83,0,0,0,300.27,324.86Zm13.25-361h4.11a1.59,1.59,0,0,1,1.59,1.59v302.8a1.59,1.59,0,0,1-1.59,1.59h-4.11a1.59,1.59,0,0,1-1.59-1.59V-34.53A1.59,1.59,0,0,1,313.52-36.12Zm14.57,0h4.11a1.59,1.59,0,0,1,1.59,1.59v302.8a1.59,1.59,0,0,1-1.59,1.59h-4.11a1.59,1.59,0,0,1-1.59-1.59V-34.53A1.59,1.59,0,0,1,328.09-36.12Zm11.66,0h.46a1.59,1.59,0,0,1,1.59,1.59v302.8a1.59,1.59,0,0,1-1.59,1.59h-.46a1.59,1.59,0,0,1-1.59-1.59V-34.53A1.59,1.59,0,0,1,339.75-36.12Z"/><path class="cls-3" d="M227.17-36.12h7a1.59,1.59,0,0,1,1.59,1.59v302.8a1.59,1.59,0,0,1-1.59,1.59h-7a1.59,1.59,0,0,1-1.59-1.59V-34.53A1.59,1.59,0,0,1,227.17-36.12Zm7.6,349h35.86q9.51,0,9.51,13.91v31a1.6,1.6,0,0,1-1.68,1.6l-6.15.08c-1.06-.05-1.44.56-1.2,1.6l7.83,33.29a1.59,1.59,0,0,1-1.55,2h-6c-.78,0-14.45-31.71-14.45-31.71H245.05a1.82,1.82,0,0,0-1.82,1.84l.32,26.81a3.06,3.06,0,0,1-3.07,3.06h-5.36a1.82,1.82,0,0,1-1.82-1.82V314.38Q233.48,312.91,234.77,312.91Zm7.57,11.95v22.58a1.82,1.82,0,0,0,1.82,1.83H267a1.6,1.6,0,0,0,1.6-1.6v-23A1.6,1.6,0,0,0,267,323H244.16A1.82,1.82,0,0,0,242.34,324.86Zm13.25-361h4.1a1.59,1.59,0,0,1,1.59,1.59v302.8a1.59,1.59,0,0,1-1.59,1.59h-4.1a1.6,1.6,0,0,1-1.6-1.59V-34.53A1.6,1.6,0,0,1,255.59-36.12Zm14.57,0h4.1a1.59,1.59,0,0,1,1.59,1.59v302.8a1.59,1.59,0,0,1-1.59,1.59h-4.1a1.59,1.59,0,0,1-1.59-1.59V-34.53A1.59,1.59,0,0,1,270.16-36.12Zm11.65,0h.46a1.6,1.6,0,0,1,1.6,1.59v302.8a1.6,1.6,0,0,1-1.6,1.59h-.46a1.59,1.59,0,0,1-1.59-1.59V-34.53A1.59,1.59,0,0,1,281.81-36.12Z"/><path class="cls-3" d="M285.22-36.12h10.2v306h-10.2Zm28.42,0h7.28v306h-7.28Zm14.57,0h7.28v306h-7.28Zm13.24,0h.46a1.6,1.6,0,0,1,1.6,1.59v302.8a1.6,1.6,0,0,1-1.6,1.59h-.46a1.59,1.59,0,0,1-1.59-1.59V-34.53A1.59,1.59,0,0,1,341.45-36.12Z"/><path class="cls-3" d="M286.81-36.12h7a1.59,1.59,0,0,1,1.59,1.59v302.8a1.59,1.59,0,0,1-1.59,1.59h-7a1.59,1.59,0,0,1-1.59-1.59V-34.53A1.59,1.59,0,0,1,286.81-36.12Zm28.42,0h4.1a1.59,1.59,0,0,1,1.59,1.59v302.8a1.59,1.59,0,0,1-1.59,1.59h-4.1a1.59,1.59,0,0,1-1.59-1.59V-34.53A1.59,1.59,0,0,1,315.23-36.12Zm14.57,0h4.1a1.59,1.59,0,0,1,1.59,1.59v302.8a1.59,1.59,0,0,1-1.59,1.59h-4.1a1.59,1.59,0,0,1-1.59-1.59V-34.53A1.59,1.59,0,0,1,329.8-36.12Zm11.65,0h.46a1.6,1.6,0,0,1,1.6,1.59v302.8a1.6,1.6,0,0,1-1.6,1.59h-.46a1.59,1.59,0,0,1-1.59-1.59V-34.53A1.59,1.59,0,0,1,341.45-36.12Z"/><path class="cls-3" d="M341.42-36.12h3.64v306h-3.64Zm10.79,349.77h42.46a1.82,1.82,0,0,1,1.83,1.82v5.87a1.82,1.82,0,0,1-1.83,1.82H363.91a4,4,0,0,0-4,4v19.06a4,4,0,0,0,4,4h25.64a1.81,1.81,0,0,1,1.82,1.82v5.87a1.81,1.81,0,0,1-1.82,1.82H363.91a4,4,0,0,0-4,4v19.06a4,4,0,0,0,4,4h30.76a1.82,1.82,0,0,1,1.83,1.82v7.69H352.21a1.82,1.82,0,0,1-1.82-1.82v-79A1.82,1.82,0,0,1,352.21,313.65ZM353.8-36.12h7.29v306H353.8Zm13.84,0h7.29v306h-7.29Zm24.05,0H399v306h-7.28Z"/></g><g class="cls-4"><line class="cls-5" x1="4.98" y1="1.25" x2="4.98" y2="287.25"/><line class="cls-6" x1="14.01" y1="1.25" x2="14.01" y2="287.25"/><line class="cls-6" x1="24.51" y1="1.25" x2="24.51" y2="287.25"/><line class="cls-6" x1="42.01" y1="1.25" x2="42.01" y2="287.25"/><line class="cls-5" x1="72.01" y1="1.25" x2="72.01" y2="287.25"/><line class="cls-6" x1="80.64" y1="1.25" x2="80.64" y2="287.25"/><line class="cls-6" x1="52.51" y1="1.25" x2="52.51" y2="287.25"/><line class="cls-5" x1="100.01" y1="1.25" x2="100.01" y2="287.25"/><line class="cls-6" x1="109.01" y1="1.25" x2="109.01" y2="287.25"/><line class="cls-5" x1="121.51" y1="1.25" x2="121.51" y2="287.25"/><line class="cls-7" x1="135.51" y1="1.25" x2="135.51" y2="287.25"/><line class="cls-5" x1="149.51" y1="1.25" x2="149.51" y2="287.25"/><line class="cls-6" x1="158.51" y1="1.25" x2="158.51" y2="287.25"/><line class="cls-5" x1="178.01" y1="1.25" x2="178.01" y2="287.25"/><line class="cls-7" x1="223.51" y1="1.25" x2="223.51" y2="287.25"/><line class="cls-8" x1="236.01" y1="1.25" x2="236.01" y2="287.25"/><line class="cls-7" x1="262.51" y1="1.25" x2="262.51" y2="287.25"/><line class="cls-6" x1="207.51" y1="1.25" x2="207.51" y2="287.25"/><line class="cls-6" x1="274.51" y1="1.25" x2="274.51" y2="287.25"/><line class="cls-5" x1="283.51" y1="1.25" x2="283.51" y2="287.25"/><line class="cls-6" x1="313.51" y1="1.25" x2="313.51" y2="287.25"/><line class="cls-5" x1="343.01" y1="1.25" x2="343.01" y2="287.25"/><line class="cls-5" x1="354.01" y1="1.25" x2="354.01" y2="287.25"/><line class="cls-9" x1="373.01" y1="1.25" x2="373.01" y2="287.25"/><line class="cls-5" x1="393.01" y1="287.25" x2="393.01" y2="1.25"/><line class="cls-6" x1="169.01" y1="1.25" x2="169.01" y2="287.25"/><line class="cls-8" x1="197.01" y1="1.18" x2="197.01" y2="287.25"/><line class="cls-6" x1="246.51" y1="1.25" x2="246.51" y2="287.25"/><line class="cls-6" x1="295.51" y1="1.25" x2="295.51" y2="287.25"/><line class="cls-6" x1="331.51" y1="1.25" x2="331.51" y2="287.25"/><line class="cls-6" x1="383.51" y1="1.25" x2="383.51" y2="287.25"/></g></svg>