<svg xmlns="http://www.w3.org/2000/svg" viewBox="0 0 528.78 83.43"><defs><style>.cls-1{fill:#fff;}</style></defs><title>Asset 39</title><g id="Layer_2" data-name="Layer 2"><g id="Layer_1-2" data-name="Layer 1"><path class="cls-1" d="M133.6.73h37.32q8.79,1.83,8.78,8.78V74.64q-1.83,8.79-8.78,8.79H133.6Zm9.35,9.4V37.08h22.82A4.13,4.13,0,0,0,169.91,33V14.26a4.13,4.13,0,0,0-4.14-4.13Zm.16,42.13V73.91H166a4.15,4.15,0,0,0,4.15-4.15V51A4.15,4.15,0,0,0,166,46.84h-17.5A5.43,5.43,0,0,0,143.11,52.26Z"/><path class="cls-1" d="M193.6.73h43.19a1.83,1.83,0,0,1,1.83,1.82V8.43a1.83,1.83,0,0,1-1.83,1.82H224.34a4,4,0,0,0-4,4V69.9a4,4,0,0,0,4,4h12.45a1.83,1.83,0,0,1,1.83,1.83v5.87a1.83,1.83,0,0,1-1.83,1.82H193.6a1.83,1.83,0,0,1-1.82-1.82V75.74a1.83,1.83,0,0,1,1.82-1.83h12.46a4,4,0,0,0,4-4V14.26a4,4,0,0,0-4-4H193.6a1.83,1.83,0,0,1-1.82-1.82V2.55A1.83,1.83,0,0,1,193.6.73Z"/><path class="cls-1" d="M252.51.73h44.28l-4,10.12L269.94,68.18a4.18,4.18,0,0,0,3.89,5.73H295a1.82,1.82,0,0,1,1.82,1.83v5.87A1.82,1.82,0,0,1,295,83.43H253.43a1.83,1.83,0,0,1-1.68-2.53l27.17-64.85a4.18,4.18,0,0,0-3.86-5.8H252.51a1.83,1.83,0,0,1-1.82-1.82V2.55A1.83,1.83,0,0,1,252.51.73Z"/><path class="cls-1" d="M316.92.73h27.81q9.51,0,9.51,13.91v67a1.82,1.82,0,0,1-1.82,1.82h-6.6A1.82,1.82,0,0,1,344,81.61V48.66a1.82,1.82,0,0,0-1.82-1.82H319.47a1.82,1.82,0,0,0-1.82,1.82v33a1.82,1.82,0,0,1-1.82,1.82h-6.6a1.82,1.82,0,0,1-1.82-1.82v-67Q307.41.74,316.92.73Zm-.22,14.63V31.84a5.24,5.24,0,0,0,5.24,5.24h15.75a5.23,5.23,0,0,0,5.24-5.24V15.36a5.23,5.23,0,0,0-5.24-5.23H321.94A5.24,5.24,0,0,0,316.7,15.36Z"/><path class="cls-1" d="M425.25,0h35.86q9.51,0,9.51,13.91v31a1.61,1.61,0,0,1-1.68,1.6l-6.15.08c-1.06,0-1.44.56-1.2,1.59l7.83,33.29a1.6,1.6,0,0,1-1.55,2h-6c-.78,0-14.45-31.72-14.45-31.72H435.53a1.8,1.8,0,0,0-1.81,1.84l.31,26.8A3.06,3.06,0,0,1,431,83.43H425.6a1.83,1.83,0,0,1-1.82-1.82V1.46C423.9.49,424.39,0,425.25,0Zm7.31,12V34.53a1.81,1.81,0,0,0,1.82,1.82h22.81a1.59,1.59,0,0,0,1.59-1.59v-23a1.59,1.59,0,0,0-1.59-1.59H434.38A1.81,1.81,0,0,0,432.56,12Z"/><path class="cls-1" d="M367.05,0h35.86q9.51,0,9.51,13.91v31a1.6,1.6,0,0,1-1.68,1.6l-6.15.08c-1.06,0-1.44.56-1.2,1.59l7.84,33.29a1.61,1.61,0,0,1-1.56,2h-6c-.78,0-14.45-31.72-14.45-31.72H377.33a1.81,1.81,0,0,0-1.81,1.84l.31,26.8a3.06,3.06,0,0,1-3.06,3.07h-5.36a1.83,1.83,0,0,1-1.83-1.82V1.46C365.71.49,366.19,0,367.05,0Zm7.57,12V34.53a1.82,1.82,0,0,0,1.82,1.82h22.82a1.59,1.59,0,0,0,1.59-1.59v-23a1.59,1.59,0,0,0-1.59-1.59H376.44A1.82,1.82,0,0,0,374.62,12Z"/><path class="cls-1" d="M484.5.73H527a1.83,1.83,0,0,1,1.82,1.82V8.43A1.83,1.83,0,0,1,527,10.25H496.2a4,4,0,0,0-4,4V33.31a4,4,0,0,0,4,4h25.63a1.83,1.83,0,0,1,1.83,1.82V45a1.83,1.83,0,0,1-1.83,1.83H496.2a4,4,0,0,0-4,4V69.91a4,4,0,0,0,4,4H527a1.83,1.83,0,0,1,1.82,1.83v7.69H484.5a1.83,1.83,0,0,1-1.83-1.82V2.55A1.83,1.83,0,0,1,484.5.73Z"/><rect class="cls-1" y="0.71" width="2.02" height="82.7"/><rect class="cls-1" x="3.04" y="0.71" width="1.16" height="82.7"/><rect class="cls-1" x="6.08" y="0.71" width="1.16" height="82.7"/><rect class="cls-1" x="11.14" y="0.71" width="1.16" height="82.7"/><rect class="cls-1" x="19.38" y="0.71" width="2.02" height="82.7"/><rect class="cls-1" x="22.31" y="0.71" width="1.16" height="82.7"/><rect class="cls-1" x="14.18" y="0.71" width="1.16" height="82.7"/><rect class="cls-1" x="27.48" y="0.71" width="2.02" height="82.7"/><rect class="cls-1" x="30.51" y="0.71" width="1.16" height="82.7"/><rect class="cls-1" x="33.69" y="0.71" width="2.02" height="82.7"/><rect class="cls-1" x="36.73" y="0.71" width="4.05" height="82.7"/><rect class="cls-1" x="41.79" y="0.71" width="2.02" height="82.7"/><rect class="cls-1" x="44.83" y="0.71" width="1.16" height="82.7"/><rect class="cls-1" x="50.03" y="0.71" width="2.02" height="82.7"/><rect class="cls-1" x="62.18" y="0.71" width="4.05" height="82.7"/><rect class="cls-1" x="67.38" y="0.71" width="0.87" height="82.7"/><rect class="cls-1" x="73.45" y="0.71" width="4.05" height="82.7"/><rect class="cls-1" x="59" y="0.71" width="1.16" height="82.7"/><rect class="cls-1" x="78.37" y="0.71" width="1.16" height="82.7"/><rect class="cls-1" x="80.54" y="0.71" width="2.02" height="82.7"/><rect class="cls-1" x="89.65" y="0.71" width="1.16" height="82.7"/><rect class="cls-1" x="97.74" y="0.71" width="2.02" height="82.7"/><rect class="cls-1" x="100.92" y="0.71" width="2.02" height="82.7"/><rect class="cls-1" x="105.84" y="0.71" width="3.18" height="82.7"/><rect class="cls-1" x="112.2" y="0.73" width="2.02" height="82.7"/><rect class="cls-1" x="47.86" y="0.71" width="1.16" height="82.7"/><rect class="cls-1" x="56.1" y="0.69" width="0.87" height="82.72"/><rect class="cls-1" x="70.27" y="0.71" width="1.16" height="82.7"/><rect class="cls-1" x="84.44" y="0.71" width="1.16" height="82.7"/><rect class="cls-1" x="94.85" y="0.71" width="1.16" height="82.7"/><rect class="cls-1" x="109.89" y="0.71" width="1.16" height="82.7"/></g></g></svg>