<svg xmlns="http://www.w3.org/2000/svg" viewBox="0 0 3161.29 3161.12"><defs><style>.cls-1,.cls-2{fill:#fff;}.cls-2{stroke:#fff;stroke-miterlimit:10;}</style></defs><title>Asset 35</title><g id="Layer_2" data-name="Layer 2"><g id="Layer_1-2" data-name="Layer 1"><path class="cls-1" d="M0,2499.71H298.5q70.26,14.64,70.25,70.24v520.92q-14.64,70.26-70.25,70.25H0Zm74.78,75.13v215.58H257.31a33.06,33.06,0,0,0,33.07-33.07V2607.91a33.06,33.06,0,0,0-33.07-33.07Zm1.31,337V3085H259.44a33.22,33.22,0,0,0,33.22-33.22V2901.68a33.22,33.22,0,0,0-33.22-33.23H119.5A43.41,43.41,0,0,0,76.09,2911.87Z"/><path class="cls-1" d="M479.9,2499.71H825.37a14.56,14.56,0,0,1,14.57,14.56v47a14.57,14.57,0,0,1-14.57,14.57H725.72a32.1,32.1,0,0,0-32.11,32.11v445A32.11,32.11,0,0,0,725.72,3085h99.65a14.57,14.57,0,0,1,14.57,14.57v47a14.57,14.57,0,0,1-14.57,14.57H479.9a14.57,14.57,0,0,1-14.57-14.57v-47A14.57,14.57,0,0,1,479.9,3085h99.65a32.11,32.11,0,0,0,32.11-32.11v-445a32.1,32.1,0,0,0-32.11-32.11H479.9a14.57,14.57,0,0,1-14.57-14.57v-47A14.56,14.56,0,0,1,479.9,2499.71Z"/><path class="cls-1" d="M951.07,2499.71h354.19l-32.21,80.89-182.58,458.59a33.46,33.46,0,0,0,31.1,45.84h169.12a14.57,14.57,0,0,1,14.57,14.57v47a14.57,14.57,0,0,1-14.57,14.57H958.4a14.57,14.57,0,0,1-13.43-20.2l217.34-518.72a33.46,33.46,0,0,0-30.87-46.39H951.07a14.57,14.57,0,0,1-14.56-14.57v-47A14.56,14.56,0,0,1,951.07,2499.71Z"/><path class="cls-1" d="M1466.21,2499.71h222.43q76.08,0,76.09,111.2v535.64a14.57,14.57,0,0,1-14.57,14.57h-52.8a14.57,14.57,0,0,1-14.57-14.57V2883a14.57,14.57,0,0,0-14.57-14.57H1486.64a14.57,14.57,0,0,0-14.57,14.57v263.53a14.57,14.57,0,0,1-14.57,14.57h-52.81a14.56,14.56,0,0,1-14.56-14.57V2610.91Q1390.13,2499.73,1466.21,2499.71Zm-1.72,117v131.82a41.88,41.88,0,0,0,41.88,41.88h126a41.88,41.88,0,0,0,41.88-41.88V2616.72a41.88,41.88,0,0,0-41.88-41.88h-126A41.88,41.88,0,0,0,1464.49,2616.72Z"/><path class="cls-1" d="M2332.65,2493.85h286.81q76.07,0,76.08,111.22V2853a12.79,12.79,0,0,1-13.42,12.77l-49.17.67c-8.5-.43-11.55,4.46-9.6,12.74L2686,3145.41a12.78,12.78,0,0,1-12.44,15.71H2625.3c-6.22,0-115.57-253.65-115.57-253.65-10.9,0-66.88,0-94.81,0a14.52,14.52,0,0,0-14.54,14.73l2.5,214.4a24.5,24.5,0,0,1-24.5,24.5H2335.5a14.56,14.56,0,0,1-14.56-14.57v-641C2321.9,2497.77,2325.8,2493.85,2332.65,2493.85Zm58.47,95.55V2770a14.56,14.56,0,0,0,14.56,14.56h182.48a12.72,12.72,0,0,0,12.73-12.72V2587.56a12.72,12.72,0,0,0-12.73-12.72H2405.68A14.56,14.56,0,0,0,2391.12,2589.4Z"/><path class="cls-1" d="M1867.17,2493.85H2154q76.07,0,76.08,111.22V2853a12.79,12.79,0,0,1-13.42,12.77l-49.17.67c-8.5-.43-11.55,4.46-9.6,12.74l62.64,266.27a12.78,12.78,0,0,1-12.44,15.71h-48.25c-6.22,0-115.57-253.65-115.57-253.65-10.9,0-66.88,0-94.81,0a14.52,14.52,0,0,0-14.54,14.73l2.5,214.4a24.5,24.5,0,0,1-24.49,24.5H1870a14.57,14.57,0,0,1-14.57-14.57v-641C1856.42,2497.77,1860.33,2493.85,1867.17,2493.85Zm60.56,95.55V2770a14.56,14.56,0,0,0,14.57,14.56h182.48a12.72,12.72,0,0,0,12.72-12.72V2587.56a12.72,12.72,0,0,0-12.72-12.72H1942.3A14.56,14.56,0,0,0,1927.73,2589.4Z"/><path class="cls-1" d="M2806.53,2499.71h339.62a14.56,14.56,0,0,1,14.56,14.56v47a14.57,14.57,0,0,1-14.56,14.57h-246a32.06,32.06,0,0,0-32.06,32.06v152.44a32.07,32.07,0,0,0,32.06,32.06h205.06a14.57,14.57,0,0,1,14.57,14.57v46.95a14.57,14.57,0,0,1-14.57,14.56H2900.11a32.07,32.07,0,0,0-32.06,32.07V3053a32.06,32.06,0,0,0,32.06,32.06h246a14.56,14.56,0,0,1,14.56,14.57v61.52H2806.53a14.57,14.57,0,0,1-14.57-14.57V2514.27A14.57,14.57,0,0,1,2806.53,2499.71Z"/><rect class="cls-2" x="1.28" y="1.12" width="55.99" height="2287.49"/><rect class="cls-2" x="85.49" y="1.12" width="31.99" height="2287.49"/><rect class="cls-2" x="169.47" y="1.12" width="31.99" height="2287.49"/><rect class="cls-2" x="309.44" y="1.12" width="31.99" height="2287.49"/><rect class="cls-2" x="537.38" y="1.12" width="55.99" height="2287.49"/><rect class="cls-2" x="618.4" y="1.12" width="31.99" height="2287.49"/><rect class="cls-2" x="393.42" y="1.12" width="31.99" height="2287.49"/><rect class="cls-2" x="761.33" y="1.12" width="55.99" height="2287.49"/><rect class="cls-2" x="845.31" y="1.12" width="31.99" height="2287.49"/><rect class="cls-2" x="933.3" y="1.12" width="55.99" height="2287.49"/><rect class="cls-2" x="1017.28" y="1.12" width="111.97" height="2287.49"/><rect class="cls-2" x="1157.24" y="1.12" width="55.99" height="2287.49"/><rect class="cls-2" x="1241.23" y="1.12" width="31.99" height="2287.49"/><rect class="cls-2" x="1385.19" y="1.12" width="55.99" height="2287.49"/><rect class="cls-2" x="1721.12" y="1.12" width="111.97" height="2287.49"/><rect class="cls-2" x="1865.09" y="1.12" width="23.99" height="2287.49"/><rect class="cls-2" x="2033.05" y="1.12" width="111.97" height="2287.49"/><rect class="cls-2" x="1633.14" y="1.12" width="31.99" height="2287.49"/><rect class="cls-2" x="2169.02" y="1.12" width="31.99" height="2287.49"/><rect class="cls-2" x="2229" y="1.12" width="55.99" height="2287.49"/><rect class="cls-2" x="2480.95" y="1.12" width="31.99" height="2287.49"/><rect class="cls-2" x="2704.9" y="1.12" width="55.99" height="2287.49"/><rect class="cls-2" x="2792.88" y="1.12" width="55.99" height="2287.49"/><rect class="cls-2" x="2928.85" y="1.12" width="87.98" height="2287.49"/><rect class="cls-2" x="3104.81" y="1.12" width="55.99" height="2287.49"/><rect class="cls-2" x="1325.21" y="1.12" width="31.99" height="2287.49"/><rect class="cls-2" x="1553.16" y="0.5" width="23.99" height="2288.1"/><rect class="cls-2" x="1945.07" y="1.12" width="31.99" height="2287.49"/><rect class="cls-2" x="2336.98" y="1.12" width="31.99" height="2287.49"/><rect class="cls-2" x="2624.91" y="1.12" width="31.99" height="2287.49"/><rect class="cls-2" x="3040.82" y="1.12" width="31.99" height="2287.49"/></g></g></svg>