<svg xmlns="http://www.w3.org/2000/svg" viewBox="0 0 6409.85 296.16"><defs><style>.cls-1{fill:#f9f9f9;}</style></defs><title>Asset 25</title><g id="Layer_2" data-name="Layer 2"><g id="Layer_1-2" data-name="Layer 1"><path class="cls-1" d="M0,0H33.4S79.19,45.37,79.19,48.36L128.45,0h33.39V290.29H128.45V66.79L97.62,97.62H64.22L33.4,66.79v223.5H0Z"/><path class="cls-1" d="M201.66,0H363.51V33.4H235.06v95H345.53v33.39H235.06V256.9H363.51v33.39H201.66Z"/><path class="cls-1" d="M405.9,0h131q30.83,6.42,30.83,30.83V249.19q-5.15,41.1-33.4,41.1H405.9Zm33.39,33.4V256.9h95.05V33.4Z"/><path class="cls-1" d="M610.13,0H774.54V33.4H710.32V256.9h64.22v33.39H610.13V256.9h64.22V33.4H610.13Z"/><path class="cls-1" d="M845.19,0h97.62Q976.2,0,976.2,48.81V290.29h-36V161.84H847.76V290.29h-36V48.81Q811.79,0,845.19,0Zm2.57,33.4v95h92.48v-95Z"/><path class="cls-1" d="M1222.82,0h131q30.83,6.42,30.83,30.83V131q-6.42,30.82-30.83,30.82h-97.62V290.29h-33.4Zm33.4,33.4v95h95v-95Z"/><path class="cls-1" d="M1426.92,0H1552.8q33.39,0,33.4,48.81V162.5l-48,1,45.18,128.41.3.94-31-.85c-3.42,0-47-128.5-47-128.5L1455,161.72l2.71,126q0,5.14-5.14,5.14h-25.69c-3.42,0-5.14-1.71-5.14-5.14V5.16Q1422.43,0,1426.92,0Zm30.83,36v92.49h81.73a10.75,10.75,0,0,0,10.75-10.76v-71A10.75,10.75,0,0,0,1539.48,36Z"/><path class="cls-1" d="M5638.45,0h125.88q33.39,0,33.39,48.81V162.5l-48.05,1,45.19,128.41.29.94-31-.85c-3.43,0-47-128.5-47-128.5l-50.59-1.81,2.71,126q0,5.14-5.13,5.14h-25.69q-5.14,0-5.14-5.14V5.16Q5634,0,5638.45,0Zm30.82,36v92.49H5751a10.76,10.76,0,0,0,10.76-10.76v-71A10.76,10.76,0,0,0,5751,36Z"/><path class="cls-1" d="M1664.69,0h100.19q30.82,6.42,30.82,30.83V259.46q-6.42,30.84-30.82,30.83H1664.69q-30.84-6.42-30.83-30.83V30.83Q1640.28,0,1664.69,0Zm2.57,33.4V256.9h95V33.4Z"/><path class="cls-1" d="M1835.52,0h131q30.82,6.42,30.83,30.83V249.19q-5.14,41.1-33.4,41.1H1835.52Zm33.4,33.4V256.9h95V33.4Z"/><path class="cls-1" d="M2039.75,0h33.4V256.9h95V0h33.4V259.46q-6.42,30.84-30.83,30.83H2070.58q-30.82-6.42-30.83-30.83Z"/><path class="cls-1" d="M2274.81,0h131V33.4H2277.38V256.9h128.45v33.39H2277.38q-28.26,0-33.39-41.1V30.83Q2250.41,0,2274.81,0Z"/><path class="cls-1" d="M2448.22,0h161.84V33.4h-64.22V290.29h-33.4V33.4h-64.22Z"/><path class="cls-1" d="M2652.45,0h164.41V33.4h-64.22V256.9h64.22v33.39H2652.45V256.9h64.23V33.4h-64.23Z"/><path class="cls-1" d="M2890.08,0h100.19q30.83,6.42,30.83,30.83V259.46q-6.42,30.84-30.83,30.83H2890.08q-30.82-6.42-30.83-30.83V30.83Q2865.67,0,2890.08,0Zm2.57,33.4V256.9h95V33.4Z"/><path class="cls-1" d="M3060.92,0h33.39l95.05,96.38V0h33.4V290.29h-33.4V157.2l-95.05-90.41v223.5h-33.39Z"/><path class="cls-1" d="M6045,0h33.4l95,96.38V0h33.4V290.29h-33.4V157.2l-95-90.41v223.5H6045Z"/><path class="cls-1" d="M3382.65,5.29H3544.8V38.72h-64.32V296.16H3447V38.72h-64.33Z"/><path class="cls-1" d="M3589.85,5.29h33.49V134h95.23V5.29h33.5V296.16h-33.5V167.44h-95.23V296.16h-33.49Z"/><path class="cls-1" d="M3822.87,5.29h97.82q33.43,0,33.43,48.91v242h-36V167.44H3825.4V296.16h-36V54.2Q3789.37,5.25,3822.87,5.29Zm2.53,33.43V134h92.69V38.72Z"/><path class="cls-1" d="M3996.56,5.29h162.16V38.72h-64.33V296.16h-33.5V38.72h-64.33Z"/><path class="cls-1" d="M4234.66,5.29H4366V38.72H4237.26V134h87.48q41.23,5.1,41.24,33.43v97.83q-6.51,30.93-30.9,30.89H4203.76V262.73h128.72V167.44h-97.82c-20.56-4.27-30.9-14.55-30.9-30.9V36.18Q4210.27,5.25,4234.66,5.29Z"/><path class="cls-1" d="M4610.54,5.29H4741.8c20.62,4.27,30.9,14.61,30.9,30.89V255q-5.21,41.14-33.43,41.17H4610.54ZM4644,38.72v224h95.29v-224Z"/><path class="cls-1" d="M4815.14,5.29h164.75V38.72H4915.5v224h64.39v33.43H4815.14V262.73h64.33v-224h-64.33Z"/><path class="cls-1" d="M5019.8,5.29H5182V38.72H5053.23V134h110.7v33.43h-110.7V296.16H5019.8Z"/><path class="cls-1" d="M5224.46,5.29h162.15V38.72H5257.89V134H5368.6v33.43H5257.89V296.16h-33.43Z"/><path class="cls-1" d="M5429.12,5.29h162.15V38.72H5462.55V134h110.71v33.43H5462.55v95.29h128.72v33.43H5429.12Z"/><path class="cls-1" d="M5838.37,5.29h162.16V38.72H5871.8V134h110.71v33.43H5871.8v95.29h128.73v33.43H5838.37Z"/><path class="cls-1" d="M6247.69,5.29h162.16V38.72h-64.33V296.16H6312V38.72h-64.33Z"/></g></g></svg>