<svg xmlns="http://www.w3.org/2000/svg" viewBox="0 0 43.73 40.01"><defs><style>.cls-1{fill:#fff;}</style></defs><title>Asset 40</title><g id="Layer_2" data-name="Layer 2"><g id="Layer_1-2" data-name="Layer 1"><path class="cls-1" d="M42.07,23.31H1.66A1.76,1.76,0,0,1,0,21.46V18.54a1.76,1.76,0,0,1,1.66-1.85H42.07a1.76,1.76,0,0,1,1.66,1.85v2.92A1.76,1.76,0,0,1,42.07,23.31Z"/><path class="cls-1" d="M42.07,40H1.66A1.76,1.76,0,0,1,0,38.15V35.24a1.76,1.76,0,0,1,1.66-1.85H42.07a1.76,1.76,0,0,1,1.66,1.85v2.91A1.76,1.76,0,0,1,42.07,40Z"/><path class="cls-1" d="M42.07,6.62H1.66A1.76,1.76,0,0,1,0,4.77V1.85A1.76,1.76,0,0,1,1.66,0H42.07a1.76,1.76,0,0,1,1.66,1.85V4.77A1.76,1.76,0,0,1,42.07,6.62Z"/></g></g></svg>