<svg xmlns="http://www.w3.org/2000/svg" viewBox="0 0 44.69 44.69"><defs><style>.cls-1{fill:none;stroke:#fff;stroke-miterlimit:10;stroke-width:5px;}.cls-2{fill:#fff;}</style></defs><title>Asset 38</title><g id="Layer_2" data-name="Layer 2"><g id="Layer_1-2" data-name="Layer 1"><rect class="cls-1" x="2.5" y="2.5" width="39.69" height="39.69" rx="19.85"/><path class="cls-2" d="M17.51,34.65V33.3c2.15-.28,2.38-.44,2.38-3.26V22.29c0-2.66-.19-2.82-2.06-3.06V17.92A43.16,43.16,0,0,0,25,16.49V30c0,2.7.16,3,2.46,3.26v1.35Zm4.65-20.58a2.89,2.89,0,0,1-2.86-2.82,2.85,2.85,0,0,1,2.9-2.82,2.79,2.79,0,0,1,2.86,2.82A2.85,2.85,0,0,1,22.16,14.07Z"/></g></g></svg>