<svg id="Layer_1" data-name="Layer 1" xmlns="http://www.w3.org/2000/svg" xmlns:xlink="http://www.w3.org/1999/xlink" viewBox="0 0 405.02 432.42"><defs><style>.cls-1{fill:none;}.cls-2{clip-path:url(#clip-path);}.cls-3{fill:#fff;}</style><clipPath id="clip-path" transform="translate(6.6 162.29)"><polygon class="cls-1" points="395.97 270.96 0.97 270.96 0.97 167.96 395.97 164.96 395.97 270.96"/></clipPath></defs><title>logo_text</title><g class="cls-2"><path class="cls-3" d="M-6.6-162.29H8v306H-6.6ZM.81,187.44H38.12q8.79,1.83,8.79,8.78v65.13q-1.83,8.77-8.79,8.78H.81Zm9.35,9.39v27H33a4.14,4.14,0,0,0,4.14-4.14V201A4.14,4.14,0,0,0,33,196.83Zm.16,36.71v27.08H33.24a4.15,4.15,0,0,0,4.15-4.16V237.69a4.15,4.15,0,0,0-4.15-4.15ZM16-162.29h3.65v306H16Zm14.57,0h3.64v306H30.55Zm16.76,0H51v306H47.31Z" transform="translate(6.6 162.29)"/><path class="cls-3" d="M51.31-162.29H55v306H51.31Zm7.29,0h7.28v306H58.6ZM59,187.44h46.83V197H91.53a4,4,0,0,0-4,4V256.6a4,4,0,0,0,4,4h14.28v9.51H59v-9.51H73.26a4,4,0,0,0,4-4V201a4,4,0,0,0-4-4H59ZM80.45-162.29h7.29v306H80.45Zm18.21,0h10.93v306H98.66Z" transform="translate(6.6 162.29)"/><path class="cls-3" d="M109.22-162.29h10.93v306H109.22Zm8.67,349.73H164l-4,10.11-22.83,57.33a4.19,4.19,0,0,0,3.89,5.74h23v9.51H117.89l28.22-67.37a4.19,4.19,0,0,0-3.86-5.81H117.89Zm15.37-349.73h7.29v306h-7.29Zm13.84,0h3.65v306H147.1Zm13.12,0h7.28v306h-7.28Z" transform="translate(6.6 162.29)"/><path class="cls-3" d="M167.14-161.57h7.28v306h-7.28Zm17,349h27.8q9.51,0,9.52,13.9v68.79H211.18V233.54H184.84v36.59H174.59V201.34Q174.59,187.45,184.11,187.44Zm-.22,14.63v16.48a5.25,5.25,0,0,0,5.24,5.24h15.75a5.25,5.25,0,0,0,5.24-5.24V202.07a5.25,5.25,0,0,0-5.24-5.24H189.13A5.25,5.25,0,0,0,183.89,202.07Zm1.46-363.64h7.28v306h-7.28Zm18.94,0h3.64v306h-3.64Zm16.75,0h3.65v306H221Z" transform="translate(6.6 162.29)"/><path class="cls-3" d="M225.05-162.29h10.2v306h-10.2Zm28.41,0h7.28v306h-7.28Zm14.57,0h7.28v306H268Zm13.25,0h.46a1.59,1.59,0,0,1,1.59,1.59V142.07a1.6,1.6,0,0,1-1.59,1.59h-.46a1.6,1.6,0,0,1-1.6-1.59V-160.7A1.6,1.6,0,0,1,281.28-162.29Z" transform="translate(6.6 162.29)"/><path class="cls-3" d="M284.57-162.29h7a1.59,1.59,0,0,1,1.59,1.59V142.07a1.59,1.59,0,0,1-1.59,1.59h-7a1.59,1.59,0,0,1-1.59-1.59V-160.7A1.59,1.59,0,0,1,284.57-162.29Zm7.86,349h35.85q9.51,0,9.51,13.9v31a1.6,1.6,0,0,1-1.68,1.6l-6.14.08c-1.07-.05-1.45.56-1.2,1.6l7.83,33.28a1.61,1.61,0,0,1-1.56,2h-6c-.78,0-14.45-31.71-14.45-31.71H300.87l.34,28.65a3.07,3.07,0,0,1-3.07,3.06H291v-82C291.08,187.2,291.57,186.71,292.43,186.71Zm7.3,10.12v26.23h24.64a1.59,1.59,0,0,0,1.59-1.59V198.42a1.59,1.59,0,0,0-1.59-1.59ZM313-162.29h4.1a1.59,1.59,0,0,1,1.59,1.59V142.07a1.59,1.59,0,0,1-1.59,1.59H313a1.59,1.59,0,0,1-1.59-1.59V-160.7A1.59,1.59,0,0,1,313-162.29Zm14.57,0h4.1a1.59,1.59,0,0,1,1.59,1.59V142.07a1.59,1.59,0,0,1-1.59,1.59h-4.1a1.59,1.59,0,0,1-1.59-1.59V-160.7A1.59,1.59,0,0,1,327.55-162.29Zm11.66,0h.46a1.59,1.59,0,0,1,1.59,1.59V142.07a1.59,1.59,0,0,1-1.59,1.59h-.46a1.59,1.59,0,0,1-1.59-1.59V-160.7A1.59,1.59,0,0,1,339.21-162.29Z" transform="translate(6.6 162.29)"/><path class="cls-3" d="M226.64-162.29h7a1.59,1.59,0,0,1,1.59,1.59V142.07a1.59,1.59,0,0,1-1.59,1.59h-7a1.59,1.59,0,0,1-1.59-1.59V-160.7A1.59,1.59,0,0,1,226.64-162.29Zm7.59,349h35.86q9.51,0,9.51,13.9v31a1.6,1.6,0,0,1-1.68,1.6l-6.15.08c-1.06-.05-1.44.56-1.2,1.6l7.84,33.28a1.61,1.61,0,0,1-1.56,2h-6c-.78,0-14.45-31.71-14.45-31.71H242.68l.33,28.65a3.06,3.06,0,0,1-3.06,3.06h-7.18v-82C232.89,187.2,233.38,186.71,234.23,186.71Zm7.57,10.12v26.23h24.64a1.59,1.59,0,0,0,1.59-1.59V198.42a1.59,1.59,0,0,0-1.59-1.59Zm13.25-359.12h4.1a1.59,1.59,0,0,1,1.59,1.59V142.07a1.59,1.59,0,0,1-1.59,1.59h-4.1a1.59,1.59,0,0,1-1.59-1.59V-160.7A1.59,1.59,0,0,1,255.05-162.29Zm14.57,0h4.1a1.59,1.59,0,0,1,1.59,1.59V142.07a1.59,1.59,0,0,1-1.59,1.59h-4.1a1.59,1.59,0,0,1-1.59-1.59V-160.7A1.59,1.59,0,0,1,269.62-162.29Zm11.66,0h.46a1.59,1.59,0,0,1,1.59,1.59V142.07a1.6,1.6,0,0,1-1.59,1.59h-.46a1.6,1.6,0,0,1-1.6-1.59V-160.7A1.6,1.6,0,0,1,281.28-162.29Z" transform="translate(6.6 162.29)"/><path class="cls-3" d="M284.68-162.29h10.2v306h-10.2Zm28.41,0h7.29v306h-7.29Zm14.57,0H335v306h-7.29Zm13.25,0h.46A1.59,1.59,0,0,1,343-160.7V142.07a1.59,1.59,0,0,1-1.59,1.59h-.46a1.59,1.59,0,0,1-1.59-1.59V-160.7A1.59,1.59,0,0,1,340.91-162.29Z" transform="translate(6.6 162.29)"/><path class="cls-3" d="M286.28-162.29h7a1.59,1.59,0,0,1,1.59,1.59V142.07a1.59,1.59,0,0,1-1.59,1.59h-7a1.6,1.6,0,0,1-1.6-1.59V-160.7A1.6,1.6,0,0,1,286.28-162.29Zm28.4,0h4.11a1.59,1.59,0,0,1,1.59,1.59V142.07a1.59,1.59,0,0,1-1.59,1.59h-4.11a1.6,1.6,0,0,1-1.59-1.59V-160.7A1.59,1.59,0,0,1,314.68-162.29Zm14.57,0h4.11A1.59,1.59,0,0,1,335-160.7V142.07a1.59,1.59,0,0,1-1.59,1.59h-4.11a1.6,1.6,0,0,1-1.59-1.59V-160.7A1.59,1.59,0,0,1,329.25-162.29Zm11.66,0h.46A1.59,1.59,0,0,1,343-160.7V142.07a1.59,1.59,0,0,1-1.59,1.59h-.46a1.59,1.59,0,0,1-1.59-1.59V-160.7A1.59,1.59,0,0,1,340.91-162.29Z" transform="translate(6.6 162.29)"/><path class="cls-3" d="M340.87-162.29h3.65v306h-3.65Zm9,349.73H396V197H363.37a4,4,0,0,0-4,4V220a4,4,0,0,0,4,4h27.45v9.51H363.37a4,4,0,0,0-4,4v19.06a4,4,0,0,0,4,4H396v9.51h-46.1Zm3.41-349.73h7.28v306h-7.28Zm13.84,0h7.28v306H367.1Zm24,0h7.28v306h-7.28Z" transform="translate(6.6 162.29)"/></g></svg>