<svg id="Layer_1" data-name="Layer 1" xmlns="http://www.w3.org/2000/svg" xmlns:xlink="http://www.w3.org/1999/xlink" viewBox="0 0 405.02 432.42"><defs><style>.cls-1,.cls-10,.cls-5,.cls-6,.cls-7,.cls-8,.cls-9{fill:none;}.cls-2{clip-path:url(#clip-path);}.cls-3{fill:#fff;}.cls-4{clip-path:url(#clip-path-2);}.cls-10,.cls-5,.cls-6,.cls-7,.cls-8,.cls-9{stroke:#fff;stroke-miterlimit:10;}.cls-5{stroke-width:7px;}.cls-6{stroke-width:4px;}.cls-7{stroke-width:14px;}.cls-8{stroke-width:3px;}.cls-9{stroke-width:11px;}</style><clipPath id="clip-path" transform="translate(6.39 36.25)"><rect class="cls-1" y="296" width="396" height="101"/></clipPath><clipPath id="clip-path-2" transform="translate(6.39 36.25)"><path class="cls-1" d="M13,0H385a12,12,0,0,1,12,12V286a0,0,0,0,1,0,0H1a0,0,0,0,1,0,0V12A12,12,0,0,1,13,0Z"/></clipPath></defs><title>Logo</title><g class="cls-2"><path class="cls-3" d="M-6.39-36.25H8.18v306H-6.39ZM1,313.48H38.34q8.77,1.83,8.78,8.79v65.12q-1.83,8.79-8.78,8.78H1Zm9.35,9.4v26.95H33.19a4.13,4.13,0,0,0,4.13-4.14V327a4.13,4.13,0,0,0-4.13-4.13Zm.16,36.7v27.08H33.45a4.15,4.15,0,0,0,4.15-4.15V363.74a4.15,4.15,0,0,0-4.15-4.16ZM16.19-36.25h3.65v306H16.19Zm14.57,0H34.4v306H30.76Zm16.76,0h3.64v306H47.52Z" transform="translate(6.39 36.25)"/><path class="cls-3" d="M51.52-36.25h3.65v306H51.52Zm7.29,0h7.28v306H58.81Zm.38,349.73H106V323H91.74a4,4,0,0,0-4,4v55.64a4,4,0,0,0,4,4H106v9.51H59.19v-9.51H73.47a4,4,0,0,0,4-4V327a4,4,0,0,0-4-4H59.19ZM80.66-36.25H88v306H80.66Zm18.21,0H109.8v306H98.87Z" transform="translate(6.39 36.25)"/><path class="cls-3" d="M109.44-36.25h10.92v306H109.44Zm8.66,349.73h46.1l-4,10.12-22.83,57.33a4.18,4.18,0,0,0,3.89,5.73h23v9.51H118.1l28.22-67.37a4.18,4.18,0,0,0-3.85-5.8H118.1ZM133.47-36.25h7.29v306h-7.29Zm13.84,0H151v306h-3.65Zm13.12,0h7.28v306h-7.28Z" transform="translate(6.39 36.25)"/><path class="cls-3" d="M167.35-35.52h7.28v306h-7.28Zm17,349h27.8q9.51,0,9.52,13.91v68.78H211.39V359.58H185.05v36.59H174.81V327.39Q174.81,313.49,184.32,313.48Zm-.22,14.63v16.48a5.25,5.25,0,0,0,5.24,5.24h15.75a5.25,5.25,0,0,0,5.24-5.24V328.11a5.24,5.24,0,0,0-5.24-5.23H189.34A5.24,5.24,0,0,0,184.1,328.11Zm1.46-363.63h7.28v306h-7.28Zm18.94,0h3.64v306H204.5Zm16.75,0h3.65v306h-3.65Z" transform="translate(6.39 36.25)"/><path class="cls-3" d="M225.26-36.25h10.2v306h-10.2Zm28.41,0H261v306h-7.28Zm14.57,0h7.28v306h-7.28Zm13.25,0H282a1.59,1.59,0,0,1,1.59,1.59V268.11A1.59,1.59,0,0,1,282,269.7h-.46a1.6,1.6,0,0,1-1.6-1.59V-34.66A1.6,1.6,0,0,1,281.49-36.25Z" transform="translate(6.39 36.25)"/><path class="cls-3" d="M284.78-36.25h7a1.59,1.59,0,0,1,1.59,1.59V268.11a1.59,1.59,0,0,1-1.59,1.59h-7a1.59,1.59,0,0,1-1.59-1.59V-34.66A1.59,1.59,0,0,1,284.78-36.25Zm7.86,349h35.85q9.51,0,9.51,13.91v31a1.59,1.59,0,0,1-1.67,1.59l-6.15.09c-1.06-.06-1.45.56-1.2,1.59l7.83,33.29a1.6,1.6,0,0,1-1.56,2h-6c-.78,0-14.45-31.71-14.45-31.71-1.71,0-12.31,0-13.69,0l.34,28.65a3.07,3.07,0,0,1-3.07,3.06h-7.18V314.22Q291.35,312.75,292.64,312.75ZM300,322.88V349.1h24.63a1.59,1.59,0,0,0,1.59-1.59v-23a1.59,1.59,0,0,0-1.59-1.59ZM313.19-36.25h4.1a1.6,1.6,0,0,1,1.6,1.59V268.11a1.6,1.6,0,0,1-1.6,1.59h-4.1a1.59,1.59,0,0,1-1.59-1.59V-34.66A1.59,1.59,0,0,1,313.19-36.25Zm14.57,0h4.1a1.59,1.59,0,0,1,1.59,1.59V268.11a1.59,1.59,0,0,1-1.59,1.59h-4.1a1.59,1.59,0,0,1-1.59-1.59V-34.66A1.59,1.59,0,0,1,327.76-36.25Zm11.66,0h.46a1.59,1.59,0,0,1,1.59,1.59V268.11a1.59,1.59,0,0,1-1.59,1.59h-.46a1.59,1.59,0,0,1-1.59-1.59V-34.66A1.59,1.59,0,0,1,339.42-36.25Z" transform="translate(6.39 36.25)"/><path class="cls-3" d="M226.85-36.25h7a1.59,1.59,0,0,1,1.59,1.59V268.11a1.59,1.59,0,0,1-1.59,1.59h-7a1.59,1.59,0,0,1-1.59-1.59V-34.66A1.59,1.59,0,0,1,226.85-36.25Zm7.59,349H270.3q9.51,0,9.51,13.91v31a1.59,1.59,0,0,1-1.68,1.59l-6.14.09c-1.07-.06-1.45.56-1.2,1.59l7.83,33.29a1.6,1.6,0,0,1-1.56,2h-6c-.78,0-14.45-31.71-14.45-31.71-1.71,0-12.31,0-13.69,0l.33,28.65a3.06,3.06,0,0,1-3.06,3.06H233V314.22C233.1,313.24,233.59,312.75,234.44,312.75ZM242,322.88V349.1h24.64a1.59,1.59,0,0,0,1.59-1.59v-23a1.59,1.59,0,0,0-1.59-1.59ZM255.26-36.25h4.1A1.59,1.59,0,0,1,261-34.66V268.11a1.59,1.59,0,0,1-1.59,1.59h-4.1a1.59,1.59,0,0,1-1.59-1.59V-34.66A1.59,1.59,0,0,1,255.26-36.25Zm14.57,0h4.1a1.59,1.59,0,0,1,1.59,1.59V268.11a1.59,1.59,0,0,1-1.59,1.59h-4.1a1.59,1.59,0,0,1-1.59-1.59V-34.66A1.59,1.59,0,0,1,269.83-36.25Zm11.66,0H282a1.59,1.59,0,0,1,1.59,1.59V268.11A1.59,1.59,0,0,1,282,269.7h-.46a1.6,1.6,0,0,1-1.6-1.59V-34.66A1.6,1.6,0,0,1,281.49-36.25Z" transform="translate(6.39 36.25)"/><path class="cls-3" d="M284.9-36.25h10.19v306H284.9Zm28.4,0h7.29v306H313.3Zm14.57,0h7.29v306h-7.29Zm13.25,0h.46a1.59,1.59,0,0,1,1.59,1.59V268.11a1.59,1.59,0,0,1-1.59,1.59h-.46a1.59,1.59,0,0,1-1.59-1.59V-34.66A1.59,1.59,0,0,1,341.12-36.25Z" transform="translate(6.39 36.25)"/><path class="cls-3" d="M286.49-36.25h7a1.59,1.59,0,0,1,1.59,1.59V268.11a1.59,1.59,0,0,1-1.59,1.59h-7a1.59,1.59,0,0,1-1.59-1.59V-34.66A1.59,1.59,0,0,1,286.49-36.25Zm28.41,0H319a1.59,1.59,0,0,1,1.59,1.59V268.11A1.59,1.59,0,0,1,319,269.7h-4.1a1.6,1.6,0,0,1-1.6-1.59V-34.66A1.6,1.6,0,0,1,314.9-36.25Zm14.56,0h4.11a1.59,1.59,0,0,1,1.59,1.59V268.11a1.59,1.59,0,0,1-1.59,1.59h-4.11a1.59,1.59,0,0,1-1.59-1.59V-34.66A1.59,1.59,0,0,1,329.46-36.25Zm11.66,0h.46a1.59,1.59,0,0,1,1.59,1.59V268.11a1.59,1.59,0,0,1-1.59,1.59h-.46a1.59,1.59,0,0,1-1.59-1.59V-34.66A1.59,1.59,0,0,1,341.12-36.25Z" transform="translate(6.39 36.25)"/><path class="cls-3" d="M341.08-36.25h3.65v306h-3.65Zm9,349.73h46.1V323H363.58a4,4,0,0,0-4,4v19.05a4,4,0,0,0,4,4H391v9.51H363.58a4,4,0,0,0-4,4v19.06a4,4,0,0,0,4,4h32.58v9.51h-46.1Zm3.41-349.73h7.28v306h-7.28Zm13.84,0h7.28v306h-7.28Zm24,0h7.28v306h-7.28Z" transform="translate(6.39 36.25)"/></g><g class="cls-4"><line class="cls-5" x1="10.86" y1="36.25" x2="10.86" y2="322.25"/><line class="cls-6" x1="19.89" y1="36.25" x2="19.89" y2="322.25"/><line class="cls-6" x1="30.39" y1="36.25" x2="30.39" y2="322.25"/><line class="cls-6" x1="47.89" y1="36.25" x2="47.89" y2="322.25"/><line class="cls-5" x1="77.89" y1="36.25" x2="77.89" y2="322.25"/><line class="cls-6" x1="86.52" y1="36.25" x2="86.52" y2="322.25"/><line class="cls-6" x1="58.39" y1="36.25" x2="58.39" y2="322.25"/><line class="cls-5" x1="105.89" y1="36.25" x2="105.89" y2="322.25"/><line class="cls-6" x1="114.89" y1="36.25" x2="114.89" y2="322.25"/><line class="cls-5" x1="127.39" y1="36.25" x2="127.39" y2="322.25"/><line class="cls-7" x1="141.39" y1="36.25" x2="141.39" y2="322.25"/><path class="cls-5" d="M149,0V106.72a12.84,12.84,0,0,1-1.66,6.5C137,131,136,154,148.54,171.46a53.69,53.69,0,0,1,.46,8.33V286" transform="translate(6.39 36.25)"/><path class="cls-6" d="M158,0V99.32C135,122,133,158,157,180.63a27.87,27.87,0,0,1,1,7.82V286" transform="translate(6.39 36.25)"/><path class="cls-5" d="M177.5,0s-1,92.87-1.65,93.08A49.69,49.69,0,0,0,140,131c-6,28,14,50,37,60,1,1,.5,95,.5,95" transform="translate(6.39 36.25)"/><path class="cls-7" d="M223,179.79V286" transform="translate(6.39 36.25)"/><path class="cls-7" d="M223,0V99.32" transform="translate(6.39 36.25)"/><path class="cls-8" d="M235.5,0V114.28q0,3.82,0,7.73c.49,8,3.49,16,2.1,24.13a57.71,57.71,0,0,1-1.21,8.36,80.57,80.57,0,0,0-.9,8.23V286" transform="translate(6.39 36.25)"/><line class="cls-7" x1="268.39" y1="36.25" x2="268.39" y2="322.25"/><path class="cls-6" d="M207,0V90.69c0,2.83.8,3.66,2,4.31,14.28,5.18,23,18,27,32,4,17,0,35-11.83,47.55-2.23,2.44-4.87,4.45-7.26,6.83A54.94,54.94,0,0,1,209,188c-2,2-2,15-2,18v80" transform="translate(6.39 36.25)"/><line class="cls-6" x1="280.39" y1="36.25" x2="280.39" y2="322.25"/><line class="cls-5" x1="289.39" y1="36.25" x2="289.39" y2="322.25"/><line class="cls-6" x1="319.39" y1="36.25" x2="319.39" y2="322.25"/><line class="cls-5" x1="348.89" y1="36.25" x2="348.89" y2="322.25"/><line class="cls-5" x1="359.89" y1="36.25" x2="359.89" y2="322.25"/><line class="cls-9" x1="378.89" y1="36.25" x2="378.89" y2="322.25"/><line class="cls-5" x1="398.89" y1="322.25" x2="398.89" y2="36.25"/><path class="cls-6" d="M168.5,0V92.11c0,2.38-.55,3.58-1.47,4.15C148,106,136,128,140,150c3,16,14,28,27,36,3,3,1.5,100,1.5,100" transform="translate(6.39 36.25)"/><path class="cls-8" d="M196.5,1V85.93c0,2.3.34,6.25,1.63,6.54C225,98,243,126,236,154c-5,20-23,29-39,38-1,1-.5,94-.5,94" transform="translate(6.39 36.25)"/><line class="cls-6" x1="252.39" y1="36.25" x2="252.39" y2="322.25"/><line class="cls-6" x1="301.39" y1="36.25" x2="301.39" y2="322.25"/><line class="cls-6" x1="337.39" y1="36.25" x2="337.39" y2="322.25"/><line class="cls-6" x1="389.39" y1="36.25" x2="389.39" y2="322.25"/><path class="cls-7" d="M222,97" transform="translate(6.39 36.25)"/><path class="cls-3" d="M229.6,106.41a12.5,12.5,0,0,0-.37-1.33c0-.09-.07-.18-.11-.27a5.71,5.71,0,0,0,.33-3.06,4,4,0,0,0,.14-1.38,15.87,15.87,0,0,0-.39-2.74,4.54,4.54,0,0,0-1.42-2.32,4.45,4.45,0,0,0-.61-1.92,5,5,0,0,0-6.84-1.8,4.85,4.85,0,0,0-2.3,3A8.94,8.94,0,0,0,218,98a10.65,10.65,0,0,0,.83,2.18c.33.7.68,1.39,1,2.08-.22,2.65,1.38,5.47,4.81,5.47a5.44,5.44,0,0,0,1.09-.11,2,2,0,0,0,2.42,1.29A2,2,0,0,0,229.6,106.41Z" transform="translate(6.39 36.25)"/><line class="cls-10" x1="235.89" y1="128.75" x2="235.89" y2="147.75"/><polyline class="cls-3" points="236.39 204.25 236.39 232.25 223.72 217.32 236.39 204.25"/></g></svg>