<svg xmlns="http://www.w3.org/2000/svg" viewBox="0 0 43.75 39.88"><defs><style>.cls-1{fill:#fff;}</style></defs><title>Asset 41</title><g id="Layer_2" data-name="Layer 2"><g id="Layer_2-2" data-name="Layer 2"><path class="cls-1" d="M43.1,5.33,5.33,39.23a2,2,0,0,1-2.77.15L.5,37.32a2,2,0,0,1,.15-2.77L38.42.65A2,2,0,0,1,41.19.5l2.06,2.06A2,2,0,0,1,43.1,5.33Z"/><path class="cls-1" d="M.65,5.33l37.77,33.9a2,2,0,0,0,2.77.15l2.06-2.06a2,2,0,0,0-.15-2.77L5.33.65A2,2,0,0,0,2.56.5L.5,2.56A2,2,0,0,0,.65,5.33Z"/></g></g></svg>