<svg id="Layer_1" data-name="Layer 1" xmlns="http://www.w3.org/2000/svg" xmlns:xlink="http://www.w3.org/1999/xlink" viewBox="0 0 585.58 615.48"><defs><style>.cls-1,.cls-3,.cls-4,.cls-5,.cls-6,.cls-7,.cls-8{fill:none;}.cls-2{clip-path:url(#clip-path);}.cls-10,.cls-3,.cls-4,.cls-5,.cls-6,.cls-7,.cls-8{stroke:#fff;stroke-miterlimit:10;}.cls-3{stroke-width:7px;}.cls-4{stroke-width:4px;}.cls-5{stroke-width:14px;}.cls-6{stroke-width:3px;}.cls-7{stroke-width:11px;}.cls-10,.cls-9{fill:#fff;}</style><clipPath id="clip-path" transform="translate(106.2 63.65)"><rect class="cls-1" width="359" height="359"/></clipPath></defs><title>Square</title><g class="cls-2"><line class="cls-3" x1="3.5" y1="0.03" x2="3.5" y2="600.94"/><line class="cls-4" x1="16.96" y1="0.03" x2="16.96" y2="600.94"/><line class="cls-4" x1="32.62" y1="0.03" x2="32.62" y2="600.94"/><line class="cls-4" x1="58.71" y1="0.03" x2="58.71" y2="600.94"/><line class="cls-3" x1="103.44" y1="14.58" x2="103.44" y2="615.48"/><line class="cls-4" x1="116.31" y1="14.58" x2="116.31" y2="615.48"/><line class="cls-4" x1="74.37" y1="14.58" x2="74.37" y2="615.48"/><line class="cls-3" x1="145.19" y1="14.58" x2="145.19" y2="615.48"/><line class="cls-4" x1="158.61" y1="14.58" x2="158.61" y2="615.48"/><line class="cls-3" x1="177.25" y1="14.58" x2="177.25" y2="615.48"/><line class="cls-5" x1="198.13" y1="14.58" x2="198.13" y2="615.48"/><path class="cls-3" d="M112.8-63.62V110a19.36,19.36,0,0,1-2.47,9.71c-15.42,26.5-16.91,60.8,1.78,86.84A79.42,79.42,0,0,1,112.8,219V537.28" transform="translate(106.2 63.65)"/><path class="cls-4" d="M126.22-63.62V99c-34.29,33.81-37.28,87.49-1.53,121.24a41.87,41.87,0,0,1,1.53,11.66V537.28" transform="translate(106.2 63.65)"/><path class="cls-3" d="M155.3-63.62s-1.49,153-2.47,153.33c-26.61,7.34-47.48,28.21-53.45,56.54-8.95,41.75,20.88,74.56,55.17,89.47,1.49,1.49.75,301.56.75,301.56" transform="translate(106.2 63.65)"/><path class="cls-5" d="M223.14,219V537.28" transform="translate(106.2 63.65)"/><path class="cls-5" d="M223.14-63.62V99" transform="translate(106.2 63.65)"/><path class="cls-6" d="M241.78-63.62V121.32c0,3.81,0,7.65,0,11.52.72,11.92,5.2,23.85,3.12,36a84.1,84.1,0,0,1-1.8,12.46c-.42,4.14-1.34,8.07-1.34,12.27V537.28" transform="translate(106.2 63.65)"/><line class="cls-5" x1="387.49" y1="14.58" x2="387.49" y2="615.48"/><path class="cls-4" d="M199.28-63.62V86.15c0,4.22,1.19,5.45,3,6.42,21.29,7.73,34.29,26.84,40.25,47.72,6,25.35,0,52.19-17.63,70.89-3.33,3.65-7.26,6.64-10.82,10.2a82.89,82.89,0,0,1-11.8,9.86c-3,3-3,22.43-3,26.81V537.28" transform="translate(106.2 63.65)"/><line class="cls-4" x1="405.39" y1="14.58" x2="405.39" y2="615.48"/><line class="cls-3" x1="418.81" y1="14.58" x2="418.81" y2="615.48"/><line class="cls-4" x1="463.54" y1="14.58" x2="463.54" y2="615.48"/><line class="cls-3" x1="507.53" y1="14.58" x2="507.53" y2="615.48"/><line class="cls-3" x1="523.93" y1="14.58" x2="523.93" y2="615.48"/><line class="cls-7" x1="552.26" y1="0.03" x2="552.26" y2="600.94"/><line class="cls-3" x1="582.08" y1="600.94" x2="582.08" y2="0.03"/><path class="cls-4" d="M141.88-63.62V88.27c0,3.54-.82,5.33-2.2,6.18-28.37,14.53-46.26,47.33-40.3,80.13,4.47,23.86,20.88,41.75,40.26,53.68,4.47,4.48,2.24,309,2.24,309" transform="translate(106.2 63.65)"/><path class="cls-6" d="M183.63-62.13V79c0,3.44.51,9.33,2.42,9.77,40.07,8.24,66.91,50,56.47,91.74-7.45,29.82-34.29,43.24-58.15,56.66-1.49,1.49-.74,300.07-.74,300.07" transform="translate(106.2 63.65)"/><line class="cls-4" x1="363.64" y1="14.58" x2="363.64" y2="615.48"/><line class="cls-4" x1="436.7" y1="14.58" x2="436.7" y2="615.48"/><line class="cls-4" x1="490.38" y1="14.58" x2="490.38" y2="615.48"/><line class="cls-4" x1="567.91" y1="0.03" x2="567.91" y2="600.94"/><path class="cls-5" d="M221.65,95.56" transform="translate(106.2 63.65)"/><path class="cls-8" d="M232.83,117.18" transform="translate(106.2 63.65)"/><polyline class="cls-9" points="337.14 269.69 336.23 310.59 324.42 281.51 340.78 262.08"/></g><polygon class="cls-10" points="335.7 157.15 336.7 180.15 326.6 165.9 335.7 157.15"/></svg>