<svg id="Layer_1" data-name="Layer 1" xmlns="http://www.w3.org/2000/svg" viewBox="0 0 783.74 214.45"><defs><style>.cls-1{fill:#474747;}.cls-2{fill:#fff;}</style></defs><title>Pandemonium-07</title><path class="cls-1" d="M0,213.65v-65.4a7.46,7.46,0,0,1,7.45-7.45h2a7.46,7.46,0,0,1,7.45,7.45v16.9h8.8A42.11,42.11,0,0,1,38.78,167a25.22,25.22,0,0,1,9.12,5.08,20.15,20.15,0,0,1,5.35,7.8,27.57,27.57,0,0,1,1.75,10,25.65,25.65,0,0,1-1.7,9.4A19.55,19.55,0,0,1,48,206.8a25.37,25.37,0,0,1-9.11,5,42.24,42.24,0,0,1-13.22,1.83ZM16.9,177.9V201h8.8a17.21,17.21,0,0,0,5.53-.8,10.13,10.13,0,0,0,3.85-2.28,9.26,9.26,0,0,0,2.27-3.52,13.16,13.16,0,0,0,.75-4.55q0-5.65-2.9-8.8t-9.5-3.15Z"/><path class="cls-1" d="M95.65,213.65H78.35L54.07,150.94a7.45,7.45,0,0,1,7-10.14h2.33a5.49,5.49,0,0,1,3.52,1.12,6.15,6.15,0,0,1,2,2.53l4.3,12.7h27.7l4.3-12.7a6.58,6.58,0,0,1,2-2.63,5.73,5.73,0,0,1,3.55-1H113a7.45,7.45,0,0,1,6.94,10.14Zm-18.6-45,6.7,19.85q.75,1.91,1.6,4.5c.57,1.73,1.1,3.62,1.6,5.65.57-2,1.13-3.86,1.7-5.58s1.1-3.2,1.6-4.47L97,168.65Z"/><path class="cls-1" d="M178.3,213.65V175.1c0-1.17,0-2.41.1-3.72s.18-2.68.35-4.08L144.1,211.05a13.58,13.58,0,0,1-1.25,1.35,4.54,4.54,0,0,1-1.15.77,4.62,4.62,0,0,1-1.35.38,13.8,13.8,0,0,1-1.85.1h-8.9v-65.4a7.45,7.45,0,0,1,7.45-7.45h0a7.46,7.46,0,0,1,7.45,7.45v31.6c0,1.07,0,2.21-.08,3.42s-.14,2.48-.27,3.78L178.5,143.6a8.18,8.18,0,0,1,2.62-2.18,7.8,7.8,0,0,1,3.28-.62h1.35a7.46,7.46,0,0,1,7.45,7.45v65.4Z"/><path class="cls-1" d="M270.67,191.77A33.71,33.71,0,0,1,263,203.3a35.33,35.33,0,0,1-11.93,7.6,41.92,41.92,0,0,1-15.47,2.75H207.3v-65.4a7.45,7.45,0,0,1,7.45-7.45H235.6a42.33,42.33,0,0,1,15.47,2.72A34.9,34.9,0,0,1,263,151.13a34,34,0,0,1,7.67,11.54,40.14,40.14,0,0,1,0,29.1Zm-16-24.32a21,21,0,0,0-4-7.38,17.64,17.64,0,0,0-6.42-4.65,21.91,21.91,0,0,0-8.65-1.62H224.3v46.85h11.3a21.73,21.73,0,0,0,8.65-1.63,17.5,17.5,0,0,0,6.42-4.64,21,21,0,0,0,4-7.38,34.83,34.83,0,0,0,0-19.55Z"/><path class="cls-1" d="M330.3,200.65v13H283.4v-65.4a7.45,7.45,0,0,1,7.45-7.45h32a7.46,7.46,0,0,1,7.45,7.45v5.55H300.4v17.35h22.9v12.5H300.4v17Z"/><path class="cls-1" d="M409.7,213.65c-.74,0-1.38,0-1.93-.05a4.68,4.68,0,0,1-1.47-.3,3.24,3.24,0,0,1-1.18-.78,6,6,0,0,1-1-1.47l-18.7-36.8c-.7-1.27-1.36-2.6-2-4s-1.21-2.83-1.77-4.3c-.57,1.43-1.16,2.83-1.78,4.2s-1.26,2.68-1.92,3.95l-18.75,37a6.34,6.34,0,0,1-1,1.47,3.29,3.29,0,0,1-1.17.78,4.8,4.8,0,0,1-1.48.3c-.55,0-1.19.05-1.92.05H340.7v-65.4a7.45,7.45,0,0,1,7.45-7.45h0a7.46,7.46,0,0,1,7.45,7.45V182.7c0,1,0,2-.1,3.18s-.15,2.32-.25,3.52l19.35-37.55A6.31,6.31,0,0,1,377,149.2a6.73,6.73,0,0,1,3.48-.9h2.3a6.7,6.7,0,0,1,3.47.9,6.33,6.33,0,0,1,2.43,2.65l19.35,37.45c-.14-1.17-.23-2.32-.28-3.45s-.07-2.18-.07-3.15V148.25a7.45,7.45,0,0,1,7.45-7.45h0a7.46,7.46,0,0,1,7.45,7.45v65.4Z"/><path class="cls-1" d="M505.47,191.9a35.19,35.19,0,0,1-7.67,11.8,35.65,35.65,0,0,1-11.93,7.87,40.18,40.18,0,0,1-15.47,2.88,40.71,40.71,0,0,1-15.5-2.85,35.67,35.67,0,0,1-12-7.85,35,35,0,0,1-7.7-11.8,41.08,41.08,0,0,1,0-29.4,34.72,34.72,0,0,1,19.68-19.7,43.49,43.49,0,0,1,31,0,34.66,34.66,0,0,1,19.6,19.7,40.81,40.81,0,0,1,0,29.35Zm-16-24.43a20.71,20.71,0,0,0-4-7.32,17.24,17.24,0,0,0-6.42-4.58A22.46,22.46,0,0,0,470.4,154a22.77,22.77,0,0,0-8.73,1.57,17.19,17.19,0,0,0-6.45,4.58,20.54,20.54,0,0,0-4,7.32,34.65,34.65,0,0,0,0,19.5,20.5,20.5,0,0,0,4,7.33,17.35,17.35,0,0,0,6.45,4.6,22.39,22.39,0,0,0,8.73,1.6,22.09,22.09,0,0,0,8.65-1.6,17.41,17.41,0,0,0,6.42-4.6,20.67,20.67,0,0,0,4-7.33,34.65,34.65,0,0,0,0-19.5Z"/><path class="cls-1" d="M566.85,213.65V175.1c0-1.17,0-2.41.1-3.72s.18-2.68.35-4.08l-34.65,43.75a13.58,13.58,0,0,1-1.25,1.35,4.54,4.54,0,0,1-1.15.77,4.62,4.62,0,0,1-1.35.38,13.8,13.8,0,0,1-1.85.1h-8.9v-65.4a7.45,7.45,0,0,1,7.45-7.45h0a7.46,7.46,0,0,1,7.45,7.45v31.6c0,1.07,0,2.21-.08,3.42s-.14,2.48-.27,3.78l34.35-43.45a8.08,8.08,0,0,1,2.62-2.18,7.77,7.77,0,0,1,3.28-.62h1.35a7.46,7.46,0,0,1,7.45,7.45v65.4Z"/><path class="cls-1" d="M612.84,148.25v65.4h-17v-65.4a7.46,7.46,0,0,1,7.45-7.45h2.1A7.45,7.45,0,0,1,612.84,148.25Z"/><path class="cls-1" d="M651.27,155.27a12.33,12.33,0,0,0-4.53,3.25,14.64,14.64,0,0,0-2.82,5.15,22.41,22.41,0,0,0-1,6.88v43.1H626V170.5a34.09,34.09,0,0,1,2.15-12.3,27.42,27.42,0,0,1,6.2-9.65,28.15,28.15,0,0,1,9.85-6.3,39.12,39.12,0,0,1,26.15,0,28.06,28.06,0,0,1,9.85,6.3,27.63,27.63,0,0,1,6.23,9.65,33.67,33.67,0,0,1,2.17,12.3v43.15h-16.9V170.5a22.31,22.31,0,0,0-1-6.87,14.16,14.16,0,0,0-2.83-5.13,12.28,12.28,0,0,0-4.52-3.23,17,17,0,0,0-12.15,0Z"/><path class="cls-1" d="M770.84,213.65c-.73,0-1.37,0-1.92-.05a4.8,4.8,0,0,1-1.48-.3,3.29,3.29,0,0,1-1.17-.78,6.34,6.34,0,0,1-1-1.47l-18.7-36.8c-.7-1.27-1.36-2.6-2-4s-1.21-2.83-1.78-4.3c-.56,1.43-1.16,2.83-1.77,4.2s-1.26,2.68-1.93,3.95l-18.75,37a6,6,0,0,1-1,1.47,3.24,3.24,0,0,1-1.18.78,4.68,4.68,0,0,1-1.47.3c-.55,0-1.19.05-1.93.05h-12.9v-65.4a7.46,7.46,0,0,1,7.45-7.45h0a7.45,7.45,0,0,1,7.45,7.45V182.7c0,1,0,2-.1,3.18s-.15,2.32-.25,3.52l19.35-37.55a6.33,6.33,0,0,1,2.43-2.65,6.67,6.67,0,0,1,3.47-.9h2.3a6.73,6.73,0,0,1,3.48.9,6.37,6.37,0,0,1,2.42,2.65l19.35,37.45q-.2-1.76-.27-3.45c0-1.13-.08-2.18-.08-3.15V148.25a7.46,7.46,0,0,1,7.45-7.45h0a7.45,7.45,0,0,1,7.45,7.45v65.4Z"/><path class="cls-1" d="M16.9,37.9V61h8.8a17.21,17.21,0,0,0,5.53-.8,10.13,10.13,0,0,0,3.85-2.28,9.26,9.26,0,0,0,2.27-3.52,13.16,13.16,0,0,0,.75-4.55q0-5.66-2.9-8.8T25.7,37.9ZM0,73.65V8.25A7.46,7.46,0,0,1,7.45.8h2A7.46,7.46,0,0,1,16.9,8.25v16.9h8.8A42.11,42.11,0,0,1,38.78,27a25.22,25.22,0,0,1,9.12,5.08,20.15,20.15,0,0,1,5.35,7.8,27.57,27.57,0,0,1,1.75,10,25.65,25.65,0,0,1-1.7,9.4A19.55,19.55,0,0,1,48,66.8a25.37,25.37,0,0,1-9.11,5A42.24,42.24,0,0,1,25.7,73.65Z"/><path class="cls-1" d="M77.05,28.65l6.7,19.85q.75,1.91,1.6,4.5c.57,1.73,1.1,3.62,1.6,5.65.57-2,1.13-3.86,1.7-5.58s1.1-3.2,1.6-4.47l6.75-20Zm18.6,45H78.35L54.07,10.94A7.45,7.45,0,0,1,61,.8h2.33a5.49,5.49,0,0,1,3.52,1.12,6.15,6.15,0,0,1,2,2.53l4.3,12.7h27.7l4.3-12.7a6.58,6.58,0,0,1,2-2.63,5.73,5.73,0,0,1,3.55-1H113a7.45,7.45,0,0,1,6.94,10.14Z"/><path class="cls-1" d="M178.3,73.65V35.1c0-1.17,0-2.41.1-3.72s.18-2.68.35-4.08L144.1,71.05a13.58,13.58,0,0,1-1.25,1.35,4.54,4.54,0,0,1-1.15.77,4.62,4.62,0,0,1-1.35.38,13.8,13.8,0,0,1-1.85.1h-8.9V8.25A7.45,7.45,0,0,1,137.05.8h0a7.46,7.46,0,0,1,7.45,7.45v31.6c0,1.07,0,2.21-.08,3.42s-.14,2.48-.27,3.78L178.5,3.6a8.18,8.18,0,0,1,2.62-2.18A7.8,7.8,0,0,1,184.4.8h1.35a7.46,7.46,0,0,1,7.45,7.45v65.4Z"/><path class="cls-1" d="M270.67,51.77A33.71,33.71,0,0,1,263,63.3a35.33,35.33,0,0,1-11.93,7.6,41.92,41.92,0,0,1-15.47,2.75H207.3V8.25A7.45,7.45,0,0,1,214.75.8H235.6a42.33,42.33,0,0,1,15.47,2.72A34.9,34.9,0,0,1,263,11.13a34,34,0,0,1,7.67,11.54,38.19,38.19,0,0,1,2.73,14.58A38,38,0,0,1,270.67,51.77Zm-16-24.32a21,21,0,0,0-4-7.38,17.64,17.64,0,0,0-6.42-4.65,21.91,21.91,0,0,0-8.65-1.62H224.3V60.65h11.3A21.73,21.73,0,0,0,244.25,59a17.5,17.5,0,0,0,6.42-4.64,21,21,0,0,0,4-7.38,31.84,31.84,0,0,0,1.4-9.75A32,32,0,0,0,254.7,27.45Z"/><path class="cls-1" d="M330.3,60.65v13H283.4V8.25A7.45,7.45,0,0,1,290.85.8h32a7.46,7.46,0,0,1,7.45,7.45V13.8H300.4V31.15h22.9v12.5H300.4v17Z"/><path class="cls-1" d="M409.7,73.65c-.74,0-1.38,0-1.93-.05a4.68,4.68,0,0,1-1.47-.3,3.24,3.24,0,0,1-1.18-.78,6,6,0,0,1-1-1.47l-18.7-36.8c-.7-1.27-1.36-2.6-2-4s-1.21-2.83-1.77-4.3c-.57,1.43-1.16,2.83-1.78,4.2s-1.26,2.68-1.92,4L359.2,71.05a6.34,6.34,0,0,1-1,1.47,3.29,3.29,0,0,1-1.17.78,4.8,4.8,0,0,1-1.48.3c-.55,0-1.19.05-1.92.05H340.7V8.25A7.45,7.45,0,0,1,348.15.8h0a7.46,7.46,0,0,1,7.45,7.45V42.7c0,1,0,2-.1,3.18s-.15,2.32-.25,3.52L374.6,11.85A6.31,6.31,0,0,1,377,9.2a6.73,6.73,0,0,1,3.48-.9h2.3a6.7,6.7,0,0,1,3.47.9,6.33,6.33,0,0,1,2.43,2.65L408.05,49.3c-.14-1.17-.23-2.32-.28-3.45s-.07-2.18-.07-3.15V8.25A7.45,7.45,0,0,1,415.15.8h0a7.46,7.46,0,0,1,7.45,7.45v65.4Z"/><path class="cls-1" d="M505.47,51.9a35.19,35.19,0,0,1-7.67,11.8,35.65,35.65,0,0,1-11.93,7.87,40.18,40.18,0,0,1-15.47,2.88,40.71,40.71,0,0,1-15.5-2.85,35.67,35.67,0,0,1-12-7.85,35,35,0,0,1-7.7-11.8,39.06,39.06,0,0,1-2.72-14.7,39.06,39.06,0,0,1,2.72-14.7,35.29,35.29,0,0,1,7.7-11.83,35.57,35.57,0,0,1,12-7.87,43.49,43.49,0,0,1,31,0,34.66,34.66,0,0,1,19.6,19.7,39.06,39.06,0,0,1,2.73,14.7A39,39,0,0,1,505.47,51.9Zm-16-24.43a20.71,20.71,0,0,0-4-7.32,17.24,17.24,0,0,0-6.42-4.58A22.46,22.46,0,0,0,470.4,14a22.77,22.77,0,0,0-8.73,1.57,17.19,17.19,0,0,0-6.45,4.58,20.54,20.54,0,0,0-4,7.32,31.55,31.55,0,0,0-1.4,9.78A31.25,31.25,0,0,0,451.2,47a20.5,20.5,0,0,0,4,7.33,17.35,17.35,0,0,0,6.45,4.6,22.39,22.39,0,0,0,8.73,1.6,22.09,22.09,0,0,0,8.65-1.6,17.41,17.41,0,0,0,6.42-4.6,20.67,20.67,0,0,0,4-7.33,31.55,31.55,0,0,0,1.4-9.72A31.85,31.85,0,0,0,489.5,27.47Z"/><path class="cls-1" d="M566.85,73.65V35.1c0-1.17,0-2.41.1-3.72s.18-2.68.35-4.08L532.65,71.05a13.58,13.58,0,0,1-1.25,1.35,4.54,4.54,0,0,1-1.15.77,4.62,4.62,0,0,1-1.35.38,13.8,13.8,0,0,1-1.85.1h-8.9V8.25A7.45,7.45,0,0,1,525.6.8h0a7.46,7.46,0,0,1,7.45,7.45v31.6c0,1.07,0,2.21-.08,3.42s-.14,2.48-.27,3.78L567.05,3.6a8.08,8.08,0,0,1,2.62-2.18A7.77,7.77,0,0,1,573,.8h1.35a7.46,7.46,0,0,1,7.45,7.45v65.4Z"/><path class="cls-1" d="M612.84,8.25v65.4h-17V8.25A7.46,7.46,0,0,1,603.29.8h2.1A7.45,7.45,0,0,1,612.84,8.25Z"/><path class="cls-1" d="M651.27,15.27a12.33,12.33,0,0,0-4.53,3.25,14.64,14.64,0,0,0-2.82,5.15,22.41,22.41,0,0,0-1,6.88v43.1H626V30.5a34.09,34.09,0,0,1,2.15-12.3,27.42,27.42,0,0,1,6.2-9.65,28.15,28.15,0,0,1,9.85-6.3,39.12,39.12,0,0,1,26.15,0,28.06,28.06,0,0,1,9.85,6.3,27.63,27.63,0,0,1,6.23,9.65,33.67,33.67,0,0,1,2.17,12.3V73.65h-16.9V30.5a22.31,22.31,0,0,0-1-6.87,14.16,14.16,0,0,0-2.83-5.13,12.28,12.28,0,0,0-4.52-3.23,17,17,0,0,0-12.15,0Z"/><path class="cls-1" d="M770.84,73.65c-.73,0-1.37,0-1.92-.05a4.8,4.8,0,0,1-1.48-.3,3.29,3.29,0,0,1-1.17-.78,6.34,6.34,0,0,1-1-1.47l-18.7-36.8c-.7-1.27-1.36-2.6-2-4s-1.21-2.83-1.78-4.3c-.56,1.43-1.16,2.83-1.77,4.2s-1.26,2.68-1.93,4L720.34,71.05a6,6,0,0,1-1,1.47,3.24,3.24,0,0,1-1.18.78,4.68,4.68,0,0,1-1.47.3c-.55,0-1.19.05-1.93.05h-12.9V8.25A7.46,7.46,0,0,1,709.29.8h0a7.45,7.45,0,0,1,7.45,7.45V42.7c0,1,0,2-.1,3.18s-.15,2.32-.25,3.52l19.35-37.55a6.33,6.33,0,0,1,2.43-2.65,6.67,6.67,0,0,1,3.47-.9h2.3a6.73,6.73,0,0,1,3.48.9,6.37,6.37,0,0,1,2.42,2.65L769.19,49.3q-.2-1.75-.27-3.45c0-1.13-.08-2.18-.08-3.15V8.25A7.46,7.46,0,0,1,776.29.8h0a7.45,7.45,0,0,1,7.45,7.45v65.4Z"/><path class="cls-2" d="M25.7,73.8a42.24,42.24,0,0,1,13.22,1.83,25.37,25.37,0,0,1,9.11,5A19.55,19.55,0,0,1,53.3,88.2,25.65,25.65,0,0,1,55,97.6a27.57,27.57,0,0,1-1.75,10,20.15,20.15,0,0,1-5.35,7.8,25.22,25.22,0,0,1-9.12,5.08A42.11,42.11,0,0,1,25.7,122.3H16.9v16.9a7.46,7.46,0,0,1-7.45,7.45h-2A7.46,7.46,0,0,1,0,139.2V73.8Zm0,35.75q6.6,0,9.5-3.15t2.9-8.8a13.16,13.16,0,0,0-.75-4.55,9.37,9.37,0,0,0-2.27-3.53,10.25,10.25,0,0,0-3.85-2.27,17.21,17.21,0,0,0-5.53-.8H16.9v23.1Z"/><path class="cls-2" d="M119.92,136.51A7.45,7.45,0,0,1,113,146.65h-2.23a5.73,5.73,0,0,1-3.55-1,6.58,6.58,0,0,1-2-2.63l-4.3-12.7H73.15L68.85,143a6.13,6.13,0,0,1-2,2.52,5.5,5.5,0,0,1-3.52,1.13H61a7.45,7.45,0,0,1-7-10.14L78.35,73.8h17.3ZM97,118.8l-6.75-20q-.75-1.91-1.6-4.47c-.57-1.72-1.13-3.58-1.7-5.58-.5,2-1,3.92-1.6,5.65s-1.1,3.23-1.6,4.5l-6.7,19.85Z"/><path class="cls-2" d="M193.2,73.8v65.4a7.46,7.46,0,0,1-7.45,7.45H184.4a7.64,7.64,0,0,1-3.28-.63,8,8,0,0,1-2.62-2.17L144.15,100.4c.13,1.3.22,2.56.27,3.77s.08,2.36.08,3.43v31.6a7.46,7.46,0,0,1-7.45,7.45h0a7.45,7.45,0,0,1-7.45-7.45V73.8h8.9a13.8,13.8,0,0,1,1.85.1,5,5,0,0,1,1.35.37,4.87,4.87,0,0,1,1.15.78,13.58,13.58,0,0,1,1.25,1.35l34.65,43.75c-.17-1.4-.29-2.76-.35-4.08s-.1-2.55-.1-3.72V73.8Z"/><path class="cls-2" d="M273.4,110.2a38.1,38.1,0,0,1-2.73,14.57A33.89,33.89,0,0,1,263,136.32a34.73,34.73,0,0,1-11.93,7.6,42.13,42.13,0,0,1-15.47,2.73H214.75a7.45,7.45,0,0,1-7.45-7.45V73.8h28.3a41.92,41.92,0,0,1,15.47,2.75A35.33,35.33,0,0,1,263,84.15a33.77,33.77,0,0,1,7.67,11.52A38.08,38.08,0,0,1,273.4,110.2Zm-17.3,0a31.84,31.84,0,0,0-1.4-9.75,21,21,0,0,0-4-7.38,17.64,17.64,0,0,0-6.42-4.65,21.91,21.91,0,0,0-8.65-1.62H224.3v46.85h11.3a21.73,21.73,0,0,0,8.65-1.63,17.5,17.5,0,0,0,6.42-4.64,21,21,0,0,0,4-7.38A32,32,0,0,0,256.1,110.2Z"/><path class="cls-2" d="M300.4,86.8v17h22.9v12.5H300.4v17.35h29.9v5.55a7.46,7.46,0,0,1-7.45,7.45h-32a7.45,7.45,0,0,1-7.45-7.45V73.8h46.9v13Z"/><path class="cls-2" d="M422.6,73.8v65.4a7.46,7.46,0,0,1-7.45,7.45h0a7.45,7.45,0,0,1-7.45-7.45V104.75c0-1,0-2,.07-3.15s.14-2.28.28-3.45L388.7,135.6a6.33,6.33,0,0,1-2.43,2.65,6.7,6.7,0,0,1-3.47.9h-2.3a6.73,6.73,0,0,1-3.48-.9,6.31,6.31,0,0,1-2.42-2.65L355.25,98.05c.1,1.2.18,2.37.25,3.52s.1,2.21.1,3.18V139.2a7.46,7.46,0,0,1-7.45,7.45h0a7.45,7.45,0,0,1-7.45-7.45V73.8h12.9c.73,0,1.37,0,1.92,0a4.8,4.8,0,0,1,1.48.3,3.4,3.4,0,0,1,1.17.77,6.42,6.42,0,0,1,1,1.48L378,113.35c.66,1.27,1.3,2.58,1.92,4s1.21,2.77,1.78,4.2q.84-2.2,1.77-4.3c.62-1.4,1.28-2.73,2-4l18.7-36.8a6.12,6.12,0,0,1,1-1.48,3.35,3.35,0,0,1,1.18-.77,4.68,4.68,0,0,1,1.47-.3c.55,0,1.19,0,1.93,0Z"/><path class="cls-2" d="M508.2,110.2a39.06,39.06,0,0,1-2.73,14.7,34.66,34.66,0,0,1-19.6,19.7,43.49,43.49,0,0,1-31,0,34.72,34.72,0,0,1-19.68-19.7,41.08,41.08,0,0,1,0-29.4,35,35,0,0,1,7.7-11.8,35.67,35.67,0,0,1,12-7.85A40.71,40.71,0,0,1,470.4,73a40.18,40.18,0,0,1,15.47,2.88,35.65,35.65,0,0,1,11.93,7.87,35.19,35.19,0,0,1,7.67,11.8A39,39,0,0,1,508.2,110.2Zm-17.3,0a31.55,31.55,0,0,0-1.4-9.72,20.67,20.67,0,0,0-4-7.33,17.41,17.41,0,0,0-6.42-4.6A22.09,22.09,0,0,0,470.4,87a22.39,22.39,0,0,0-8.73,1.6,17.35,17.35,0,0,0-6.45,4.6,20.5,20.5,0,0,0-4,7.33,34.65,34.65,0,0,0,0,19.5,20.54,20.54,0,0,0,4,7.32,17.19,17.19,0,0,0,6.45,4.58,23,23,0,0,0,8.73,1.57,22.65,22.65,0,0,0,8.65-1.57,17.24,17.24,0,0,0,6.42-4.58,20.71,20.71,0,0,0,4-7.32A31.85,31.85,0,0,0,490.9,110.2Z"/><path class="cls-2" d="M581.75,73.8v65.4a7.46,7.46,0,0,1-7.45,7.45H573a7.61,7.61,0,0,1-3.28-.63,7.91,7.91,0,0,1-2.62-2.17L532.7,100.4c.13,1.3.22,2.56.27,3.77s.08,2.36.08,3.43v31.6a7.46,7.46,0,0,1-7.45,7.45h0a7.45,7.45,0,0,1-7.45-7.45V73.8h8.9a13.8,13.8,0,0,1,1.85.1,5,5,0,0,1,1.35.37,4.87,4.87,0,0,1,1.15.78,13.58,13.58,0,0,1,1.25,1.35l34.65,43.75c-.17-1.4-.29-2.76-.35-4.08s-.1-2.55-.1-3.72V73.8Z"/><path class="cls-2" d="M605.39,146.65h-2.1a7.46,7.46,0,0,1-7.45-7.45V73.8h17v65.4A7.45,7.45,0,0,1,605.39,146.65Z"/><path class="cls-2" d="M657.34,133.3a15.54,15.54,0,0,0,6.08-1.13,12.26,12.26,0,0,0,4.52-3.22,14.16,14.16,0,0,0,2.83-5.13,22.31,22.31,0,0,0,1-6.87V73.8h16.9V117a33.67,33.67,0,0,1-2.17,12.3,27.63,27.63,0,0,1-6.23,9.65,28.06,28.06,0,0,1-9.85,6.3,39.12,39.12,0,0,1-26.15,0,28.15,28.15,0,0,1-9.85-6.3,27.42,27.42,0,0,1-6.2-9.65A34.09,34.09,0,0,1,626,117V73.8h16.9v43.1a22.3,22.3,0,0,0,1,6.87,14.47,14.47,0,0,0,2.82,5.15,12.22,12.22,0,0,0,4.53,3.25A15.53,15.53,0,0,0,657.34,133.3Z"/><path class="cls-2" d="M783.74,73.8v65.4a7.45,7.45,0,0,1-7.45,7.45h0a7.46,7.46,0,0,1-7.45-7.45V104.75c0-1,0-2,.08-3.15s.14-2.28.27-3.45L749.84,135.6a6.37,6.37,0,0,1-2.42,2.65,6.73,6.73,0,0,1-3.48.9h-2.3a6.67,6.67,0,0,1-3.47-.9,6.33,6.33,0,0,1-2.43-2.65L716.39,98.05c.1,1.2.19,2.37.25,3.52s.1,2.21.1,3.18V139.2a7.45,7.45,0,0,1-7.45,7.45h0a7.46,7.46,0,0,1-7.45-7.45V73.8h12.9c.74,0,1.38,0,1.93,0a4.68,4.68,0,0,1,1.47.3,3.35,3.35,0,0,1,1.18.77,6.12,6.12,0,0,1,1,1.48l18.75,36.95c.67,1.27,1.31,2.58,1.93,4s1.21,2.77,1.77,4.2q.86-2.2,1.78-4.3c.61-1.4,1.27-2.73,2-4l18.7-36.8a6.42,6.42,0,0,1,1-1.48,3.4,3.4,0,0,1,1.17-.77,4.8,4.8,0,0,1,1.48-.3c.55,0,1.19,0,1.92,0Z"/></svg>